<svg width="14" height="14" viewBox="0 0 14 14" fill="none" xmlns="http://www.w3.org/2000/svg">
<path d="M5.39585 2.91667C5.39585 2.03 6.11335 1.3125 7.00002 1.3125C7.88669 1.3125 8.60419 2.03 8.60419 2.91667C8.60419 3.80333 7.88669 4.52083 7.00002 4.52083C6.11335 4.52083 5.39585 3.80333 5.39585 2.91667ZM7.72919 2.91667C7.72919 2.51417 7.40252 2.1875 7.00002 2.1875C6.59752 2.1875 6.27085 2.51417 6.27085 2.91667C6.27085 3.31917 6.59752 3.64583 7.00002 3.64583C7.40252 3.64583 7.72919 3.31917 7.72919 2.91667Z" fill="#727E94"/>
<path d="M5.39585 11.0834C5.39585 10.1967 6.11335 9.47919 7.00002 9.47919C7.88669 9.47919 8.60419 10.1967 8.60419 11.0834C8.60419 11.97 7.88669 12.6875 7.00002 12.6875C6.11335 12.6875 5.39585 11.97 5.39585 11.0834ZM7.72919 11.0834C7.72919 10.6809 7.40252 10.3542 7.00002 10.3542C6.59752 10.3542 6.27085 10.6809 6.27085 11.0834C6.27085 11.4859 6.59752 11.8125 7.00002 11.8125C7.40252 11.8125 7.72919 11.4859 7.72919 11.0834Z" fill="#727E94"/>
<path d="M5.39585 6.99998C5.39585 6.11331 6.11335 5.39581 7.00002 5.39581C7.88669 5.39581 8.60419 6.11331 8.60419 6.99998C8.60419 7.88665 7.88669 8.60415 7.00002 8.60415C6.11335 8.60415 5.39585 7.88665 5.39585 6.99998ZM7.72919 6.99998C7.72919 6.59748 7.40252 6.27081 7.00002 6.27081C6.59752 6.27081 6.27085 6.59748 6.27085 6.99998C6.27085 7.40248 6.59752 7.72915 7.00002 7.72915C7.40252 7.72915 7.72919 7.40248 7.72919 6.99998Z" fill="#727E94"/>
</svg>
