<svg width="21" height="20" viewBox="0 0 21 20" fill="none" xmlns="http://www.w3.org/2000/svg">
<path d="M10.66 18.9583C5.71837 18.9583 1.7017 14.9416 1.7017 9.99996C1.7017 5.05829 5.71837 1.04163 10.66 1.04163C15.6017 1.04163 19.6184 5.05829 19.6184 9.99996C19.6184 14.9416 15.6017 18.9583 10.66 18.9583ZM10.66 2.29163C6.41003 2.29163 2.9517 5.74996 2.9517 9.99996C2.9517 14.25 6.41003 17.7083 10.66 17.7083C14.91 17.7083 18.3684 14.25 18.3684 9.99996C18.3684 5.74996 14.91 2.29163 10.66 2.29163Z" fill="#4E4F6C"/>
<path d="M9.61004 13.5667C9.4517 13.5667 9.29337 13.5083 9.16837 13.3833C8.9267 13.1417 8.9267 12.7417 9.16837 12.5L11.6684 10L9.16837 7.50001C8.9267 7.25834 8.9267 6.85834 9.16837 6.61667C9.41004 6.37501 9.81004 6.37501 10.0517 6.61667L12.9934 9.55834C13.235 9.80001 13.235 10.2 12.9934 10.4417L10.0517 13.3833C9.92671 13.5083 9.76837 13.5667 9.61004 13.5667Z" fill="#4E4F6C"/>
</svg>
