<?xml version="1.0" encoding="UTF-8"?>
<svg xmlns="http://www.w3.org/2000/svg" xmlns:xlink="http://www.w3.org/1999/xlink" width="20px" height="20px" viewBox="0 0 20 20" version="1.1">
<g id="surface1">
<path style=" stroke:none;fill-rule:nonzero;fill:rgb(30.588235%,30.980392%,42.352941%);fill-opacity:1;" d="M 8.160156 4.832031 C 8.304688 4.832031 8.445312 4.886719 8.5625 5 C 8.78125 5.21875 8.78125 5.582031 8.5625 5.804688 L 4.363281 10 L 8.5625 14.195312 C 8.78125 14.417969 8.78125 14.78125 8.5625 15 C 8.339844 15.21875 7.976562 15.21875 7.757812 15 L 3.160156 10.402344 C 2.9375 10.183594 2.9375 9.816406 3.160156 9.597656 L 7.757812 5 C 7.871094 4.886719 8.015625 4.832031 8.160156 4.832031 Z M 8.160156 4.832031 "/>
<path style=" stroke:none;fill-rule:nonzero;fill:rgb(30.588235%,30.980392%,42.352941%);fill-opacity:1;" d="M 3.6875 9.433594 L 16.4375 9.433594 C 16.75 9.433594 17.007812 9.6875 17.007812 10 C 17.007812 10.3125 16.75 10.566406 16.4375 10.566406 L 3.6875 10.566406 C 3.378906 10.566406 3.121094 10.3125 3.121094 10 C 3.121094 9.6875 3.378906 9.433594 3.6875 9.433594 Z M 3.6875 9.433594 "/>
</g>
</svg>
