<svg width="24" height="24" viewBox="0 0 24 24" fill="none" xmlns="http://www.w3.org/2000/svg">
<path d="M11.9999 22.75C6.06994 22.75 1.24994 17.93 1.24994 12C1.24994 6.07 6.06994 1.25 11.9999 1.25C17.9299 1.25 22.7499 6.07 22.7499 12C22.7499 17.93 17.9299 22.75 11.9999 22.75ZM11.9999 2.75C6.89994 2.75 2.74994 6.9 2.74994 12C2.74994 17.1 6.89994 21.25 11.9999 21.25C17.0999 21.25 21.2499 17.1 21.2499 12C21.2499 6.9 17.0999 2.75 11.9999 2.75Z" fill="#00A578"/>
<path d="M15.9999 12.75H7.99994C7.58994 12.75 7.24994 12.41 7.24994 12C7.24994 11.59 7.58994 11.25 7.99994 11.25H15.9999C16.4099 11.25 16.7499 11.59 16.7499 12C16.7499 12.41 16.4099 12.75 15.9999 12.75Z" fill="#00A578"/>
<path d="M12 16.75C11.59 16.75 11.25 16.41 11.25 16V8C11.25 7.59 11.59 7.25 12 7.25C12.41 7.25 12.75 7.59 12.75 8V16C12.75 16.41 12.41 16.75 12 16.75Z" fill="#00A578"/>
</svg>
