<svg width="12" height="12" viewBox="0 0 12 12" fill="none" xmlns="http://www.w3.org/2000/svg">
<path d="M9.03506 5.15997C8.94006 5.15997 8.84506 5.12497 8.77006 5.04997L6.00006 2.27997L3.23006 5.04997C3.08506 5.19497 2.84506 5.19497 2.70006 5.04997C2.55506 4.90497 2.55506 4.66497 2.70006 4.51997L5.73506 1.48497C5.88006 1.33997 6.12006 1.33997 6.26506 1.48497L9.30006 4.51997C9.44506 4.66497 9.44506 4.90497 9.30006 5.04997C9.23006 5.12497 9.13006 5.15997 9.03506 5.15997Z" fill="#00A578"/>
<path d="M6 10.625C5.795 10.625 5.625 10.455 5.625 10.25L5.625 1.83496C5.625 1.62996 5.795 1.45996 6 1.45996C6.205 1.45996 6.375 1.62996 6.375 1.83496L6.375 10.25C6.375 10.455 6.205 10.625 6 10.625Z" fill="#00A578"/>
</svg>
