<svg width="12" height="12" viewBox="0 0 12 12" fill="none" xmlns="http://www.w3.org/2000/svg">
<path d="M6.00006 10.6251C5.90506 10.6251 5.81006 10.5901 5.73506 10.5151L2.70006 7.48006C2.55506 7.33506 2.55506 7.09506 2.70006 6.95006C2.84506 6.80506 3.08506 6.80506 3.23006 6.95006L6.00006 9.72006L8.77006 6.95006C8.91506 6.80506 9.15506 6.80506 9.30006 6.95006C9.44506 7.09506 9.44506 7.33506 9.30006 7.48006L6.26506 10.5151C6.19006 10.5901 6.09506 10.6251 6.00006 10.6251Z" fill="#FC5371"/>
<path d="M6 10.54C5.795 10.54 5.625 10.37 5.625 10.165L5.625 1.75C5.625 1.545 5.795 1.375 6 1.375C6.205 1.375 6.375 1.545 6.375 1.75L6.375 10.165C6.375 10.37 6.205 10.54 6 10.54Z" fill="#FC5371"/>
</svg>
