<svg width="16" height="16" viewBox="0 0 16 16" fill="none" xmlns="http://www.w3.org/2000/svg">
<mask id="path-1-inside-1_106_7371" fill="white">
<path d="M7.40001 15.1667H4.60001C1.99334 15.1667 0.833344 14.0067 0.833344 11.4V8.6C0.833344 5.99334 1.99334 4.83334 4.60001 4.83334H7.40001C10.0067 4.83334 11.1667 5.99334 11.1667 8.6V11.4C11.1667 14.0067 10.0067 15.1667 7.40001 15.1667ZM4.60001 5.83334C2.53334 5.83334 1.83334 6.53334 1.83334 8.6V11.4C1.83334 13.4667 2.53334 14.1667 4.60001 14.1667H7.40001C9.46668 14.1667 10.1667 13.4667 10.1667 11.4V8.6C10.1667 6.53334 9.46668 5.83334 7.40001 5.83334H4.60001Z"/>
</mask>
<path d="M7.40001 15.1667H4.60001C1.99334 15.1667 0.833344 14.0067 0.833344 11.4V8.6C0.833344 5.99334 1.99334 4.83334 4.60001 4.83334H7.40001C10.0067 4.83334 11.1667 5.99334 11.1667 8.6V11.4C11.1667 14.0067 10.0067 15.1667 7.40001 15.1667ZM4.60001 5.83334C2.53334 5.83334 1.83334 6.53334 1.83334 8.6V11.4C1.83334 13.4667 2.53334 14.1667 4.60001 14.1667H7.40001C9.46668 14.1667 10.1667 13.4667 10.1667 11.4V8.6C10.1667 6.53334 9.46668 5.83334 7.40001 5.83334H4.60001Z" fill="#4E4F6C"/>
<path d="M7.40001 14.1667H4.60001V16.1667H7.40001V14.1667ZM4.60001 14.1667C3.42156 14.1667 2.79442 13.9019 2.44628 13.5537C2.09815 13.2056 1.83334 12.5784 1.83334 11.4H-0.166656C-0.166656 12.8282 0.148542 14.0844 1.03207 14.9679C1.9156 15.8515 3.17179 16.1667 4.60001 16.1667V14.1667ZM1.83334 11.4V8.6H-0.166656V11.4H1.83334ZM1.83334 8.6C1.83334 7.42156 2.09815 6.79441 2.44628 6.44628C2.79442 6.09814 3.42156 5.83334 4.60001 5.83334V3.83334C3.17179 3.83334 1.9156 4.14853 1.03207 5.03206C0.148542 5.91559 -0.166656 7.17178 -0.166656 8.6H1.83334ZM4.60001 5.83334H7.40001V3.83334H4.60001V5.83334ZM7.40001 5.83334C8.57846 5.83334 9.2056 6.09814 9.55374 6.44628C9.90187 6.79441 10.1667 7.42156 10.1667 8.6H12.1667C12.1667 7.17178 11.8515 5.91559 10.9679 5.03206C10.0844 4.14853 8.82823 3.83334 7.40001 3.83334V5.83334ZM10.1667 8.6V11.4H12.1667V8.6H10.1667ZM10.1667 11.4C10.1667 12.5784 9.90187 13.2056 9.55374 13.5537C9.2056 13.9019 8.57846 14.1667 7.40001 14.1667V16.1667C8.82823 16.1667 10.0844 15.8515 10.9679 14.9679C11.8515 14.0844 12.1667 12.8282 12.1667 11.4H10.1667ZM4.60001 4.83334C3.50758 4.83334 2.46307 5.00606 1.73457 5.73456C1.00607 6.46306 0.833343 7.50758 0.833343 8.6H2.83334C2.83334 7.62576 3.01062 7.28694 3.14878 7.14878C3.28695 7.01061 3.62577 6.83334 4.60001 6.83334V4.83334ZM0.833343 8.6V11.4H2.83334V8.6H0.833343ZM0.833343 11.4C0.833343 12.4924 1.00607 13.5369 1.73457 14.2654C2.46307 14.9939 3.50758 15.1667 4.60001 15.1667V13.1667C3.62577 13.1667 3.28695 12.9894 3.14878 12.8512C3.01062 12.7131 2.83334 12.3742 2.83334 11.4H0.833343ZM4.60001 15.1667H7.40001V13.1667H4.60001V15.1667ZM7.40001 15.1667C8.49244 15.1667 9.53695 14.9939 10.2654 14.2654C10.994 13.5369 11.1667 12.4924 11.1667 11.4H9.16668C9.16668 12.3742 8.9894 12.7131 8.85124 12.8512C8.71307 12.9894 8.37425 13.1667 7.40001 13.1667V15.1667ZM11.1667 11.4V8.6H9.16668V11.4H11.1667ZM11.1667 8.6C11.1667 7.50758 10.994 6.46306 10.2654 5.73456C9.53695 5.00606 8.49244 4.83334 7.40001 4.83334V6.83334C8.37425 6.83334 8.71307 7.01061 8.85124 7.14878C8.9894 7.28694 9.16668 7.62576 9.16668 8.6H11.1667ZM7.40001 4.83334H4.60001V6.83334H7.40001V4.83334Z" fill="#4E4F6C" mask="url(#path-1-inside-1_106_7371)"/>
<mask id="path-3-inside-2_106_7371" fill="white">
<path d="M11.4 11.1667H10.6666C10.3933 11.1667 10.1666 10.94 10.1666 10.6667V8.6C10.1666 6.53334 9.46665 5.83334 7.39998 5.83334H5.33331C5.05998 5.83334 4.83331 5.60667 4.83331 5.33334V4.6C4.83331 1.99334 5.99331 0.833336 8.59998 0.833336H11.4C14.0066 0.833336 15.1666 1.99334 15.1666 4.6V7.4C15.1666 10.0067 14.0066 11.1667 11.4 11.1667ZM11.1666 10.1667H11.4C13.4666 10.1667 14.1666 9.46667 14.1666 7.4V4.6C14.1666 2.53334 13.4666 1.83334 11.4 1.83334H8.59998C6.53331 1.83334 5.83331 2.53334 5.83331 4.6V4.83334H7.39998C10.0066 4.83334 11.1666 5.99334 11.1666 8.6V10.1667Z"/>
</mask>
<path d="M11.4 11.1667H10.6666C10.3933 11.1667 10.1666 10.94 10.1666 10.6667V8.6C10.1666 6.53334 9.46665 5.83334 7.39998 5.83334H5.33331C5.05998 5.83334 4.83331 5.60667 4.83331 5.33334V4.6C4.83331 1.99334 5.99331 0.833336 8.59998 0.833336H11.4C14.0066 0.833336 15.1666 1.99334 15.1666 4.6V7.4C15.1666 10.0067 14.0066 11.1667 11.4 11.1667ZM11.1666 10.1667H11.4C13.4666 10.1667 14.1666 9.46667 14.1666 7.4V4.6C14.1666 2.53334 13.4666 1.83334 11.4 1.83334H8.59998C6.53331 1.83334 5.83331 2.53334 5.83331 4.6V4.83334H7.39998C10.0066 4.83334 11.1666 5.99334 11.1666 8.6V10.1667Z" fill="#4E4F6C"/>
<path d="M11.1666 10.1667H10.1666V11.1667H11.1666V10.1667ZM5.83331 4.83334H4.83331V5.83334H5.83331V4.83334ZM11.4 10.1667H10.6666V12.1667H11.4V10.1667ZM10.6666 10.1667C10.9456 10.1667 11.1666 10.3877 11.1666 10.6667H9.16665C9.16665 11.4923 9.84103 12.1667 10.6666 12.1667V10.1667ZM11.1666 10.6667V8.6H9.16665V10.6667H11.1666ZM11.1666 8.6C11.1666 7.50758 10.9939 6.46306 10.2654 5.73456C9.53692 5.00606 8.49241 4.83334 7.39998 4.83334V6.83334C8.37422 6.83334 8.71304 7.01061 8.85121 7.14878C8.98937 7.28694 9.16665 7.62576 9.16665 8.6H11.1666ZM7.39998 4.83334H5.33331V6.83334H7.39998V4.83334ZM5.33331 4.83334C5.61226 4.83334 5.83331 5.05438 5.83331 5.33334H3.83331C3.83331 6.15895 4.50769 6.83334 5.33331 6.83334V4.83334ZM5.83331 5.33334V4.6H3.83331V5.33334H5.83331ZM5.83331 4.6C5.83331 3.42156 6.09811 2.79441 6.44625 2.44628C6.79439 2.09814 7.42153 1.83334 8.59998 1.83334V-0.166664C7.17176 -0.166664 5.91557 0.148534 5.03204 1.03206C4.14851 1.91559 3.83331 3.17178 3.83331 4.6H5.83331ZM8.59998 1.83334H11.4V-0.166664H8.59998V1.83334ZM11.4 1.83334C12.5784 1.83334 13.2056 2.09814 13.5537 2.44628C13.9018 2.79441 14.1666 3.42156 14.1666 4.6H16.1666C16.1666 3.17178 15.8514 1.91559 14.9679 1.03206C14.0844 0.148534 12.8282 -0.166664 11.4 -0.166664V1.83334ZM14.1666 4.6V7.4H16.1666V4.6H14.1666ZM14.1666 7.4C14.1666 8.57845 13.9018 9.20559 13.5537 9.55373C13.2056 9.90187 12.5784 10.1667 11.4 10.1667V12.1667C12.8282 12.1667 14.0844 11.8515 14.9679 10.9679C15.8514 10.0844 16.1666 8.82822 16.1666 7.4H14.1666ZM11.1666 11.1667H11.4V9.16667H11.1666V11.1667ZM11.4 11.1667C12.4924 11.1667 13.5369 10.9939 14.2654 10.2654C14.9939 9.53694 15.1666 8.49243 15.1666 7.4H13.1666C13.1666 8.37424 12.9894 8.71306 12.8512 8.85123C12.713 8.98939 12.3742 9.16667 11.4 9.16667V11.1667ZM15.1666 7.4V4.6H13.1666V7.4H15.1666ZM15.1666 4.6C15.1666 3.50758 14.9939 2.46306 14.2654 1.73456C13.5369 1.00606 12.4924 0.833336 11.4 0.833336V2.83334C12.3742 2.83334 12.713 3.01061 12.8512 3.14878C12.9894 3.28694 13.1666 3.62576 13.1666 4.6H15.1666ZM11.4 0.833336H8.59998V2.83334H11.4V0.833336ZM8.59998 0.833336C7.50755 0.833336 6.46304 1.00606 5.73454 1.73456C5.00604 2.46306 4.83331 3.50758 4.83331 4.6H6.83331C6.83331 3.62576 7.01059 3.28694 7.14875 3.14878C7.28692 3.01061 7.62574 2.83334 8.59998 2.83334V0.833336ZM4.83331 4.6V4.83334H6.83331V4.6H4.83331ZM5.83331 5.83334H7.39998V3.83334H5.83331V5.83334ZM7.39998 5.83334C8.57843 5.83334 9.20557 6.09814 9.55371 6.44628C9.90184 6.79441 10.1666 7.42156 10.1666 8.6H12.1666C12.1666 7.17178 11.8514 5.91559 10.9679 5.03206C10.0844 4.14853 8.8282 3.83334 7.39998 3.83334V5.83334ZM10.1666 8.6V10.1667H12.1666V8.6H10.1666Z" fill="#4E4F6C" mask="url(#path-3-inside-2_106_7371)"/>
</svg>
