<svg width="16" height="16" viewBox="0 0 16 16" fill="none" xmlns="http://www.w3.org/2000/svg">
<path d="M8 15.1666C4.04666 15.1666 0.833328 11.9533 0.833328 7.99998C0.833328 4.04665 4.04666 0.833313 8 0.833313C11.9533 0.833313 15.1667 4.04665 15.1667 7.99998C15.1667 11.9533 11.9533 15.1666 8 15.1666ZM8 1.83331C4.6 1.83331 1.83333 4.59998 1.83333 7.99998C1.83333 11.4 4.6 14.1666 8 14.1666C11.4 14.1666 14.1667 11.4 14.1667 7.99998C14.1667 4.59998 11.4 1.83331 8 1.83331Z" fill="#4E4F6C"/>
<path d="M6.11334 10.3867C5.98667 10.3867 5.86001 10.34 5.76001 10.24C5.56667 10.0467 5.56667 9.72666 5.76001 9.53332L9.53334 5.75999C9.72667 5.56666 10.0467 5.56666 10.24 5.75999C10.4333 5.95332 10.4333 6.27332 10.24 6.46666L6.46667 10.24C6.37334 10.34 6.24001 10.3867 6.11334 10.3867Z" fill="#4E4F6C"/>
<path d="M9.88667 10.3867C9.76001 10.3867 9.63334 10.34 9.53334 10.24L5.76001 6.46666C5.56667 6.27332 5.56667 5.95332 5.76001 5.75999C5.95334 5.56666 6.27334 5.56666 6.46667 5.75999L10.24 9.53332C10.4333 9.72666 10.4333 10.0467 10.24 10.24C10.14 10.34 10.0133 10.3867 9.88667 10.3867Z" fill="#4E4F6C"/>
</svg>
