<svg width="20" height="20" viewBox="0 0 20 20" fill="none" xmlns="http://www.w3.org/2000/svg">
<g clip-path="url(#clip0_2_3198)">
<path d="M15.9999 7.16146C16.0004 7.31088 15.9721 7.45852 15.9172 7.59352C15.8624 7.72853 15.7823 7.84747 15.6828 7.9416L10.5405 12.7725C10.3871 12.9196 10.1947 13 9.99622 13C9.7977 13 9.60534 12.9196 9.45199 12.7725L4.30962 7.77157C4.13459 7.6018 4.02452 7.35785 4.00363 7.09337C3.98273 6.8289 4.05272 6.56557 4.1982 6.36132C4.34367 6.15706 4.55272 6.02862 4.77935 6.00423C5.00598 5.97985 5.23163 6.06152 5.40665 6.23129L10.0005 10.7021L14.5944 6.38132C14.7202 6.25902 14.8734 6.18132 15.0358 6.15744C15.1983 6.13356 15.3632 6.16448 15.511 6.24655C15.6589 6.32862 15.7835 6.4584 15.8702 6.62054C15.9568 6.78268 16.0019 6.97039 15.9999 7.16146Z" fill="#727E94"/>
</g>
<defs>
<clipPath id="clip0_2_3198">
<rect width="20" height="20" fill="white" transform="translate(0 20) rotate(-90)"/>
</clipPath>
</defs>
</svg>
