<svg width="20" height="20" viewBox="0 0 20 20" fill="none" xmlns="http://www.w3.org/2000/svg">
<path d="M9.16671 14.7916C9.00837 14.7916 8.85004 14.7333 8.72504 14.6083C8.48337 14.3666 8.48337 13.9666 8.72504 13.725L9.32504 13.125H5.83337C5.49171 13.125 5.20837 12.8416 5.20837 12.5C5.20837 12.1583 5.49171 11.875 5.83337 11.875H9.32504L8.72504 11.275C8.60004 11.15 8.54171 10.9916 8.54171 10.8333C8.54171 10.675 8.60004 10.5166 8.72504 10.3916C8.96671 10.15 9.36671 10.15 9.60837 10.3916L11.275 12.0583C11.3834 12.1666 11.4417 12.3083 11.45 12.4416C11.45 12.4833 11.45 12.5333 11.45 12.575C11.4334 12.6916 11.3834 12.8 11.3 12.9C11.2917 12.9083 11.275 12.925 11.2667 12.9333L9.60004 14.6C9.48337 14.7333 9.32504 14.7916 9.16671 14.7916Z" fill="#4E4F6C"/>
<path d="M12.5 18.9584H7.49996C2.97496 18.9584 1.04163 17.025 1.04163 12.5V7.50002C1.04163 2.97502 2.97496 1.04169 7.49996 1.04169H11.6666C12.0083 1.04169 12.2916 1.32502 12.2916 1.66669C12.2916 2.00835 12.0083 2.29169 11.6666 2.29169H7.49996C3.65829 2.29169 2.29163 3.65835 2.29163 7.50002V12.5C2.29163 16.3417 3.65829 17.7084 7.49996 17.7084H12.5C16.3416 17.7084 17.7083 16.3417 17.7083 12.5V8.33335C17.7083 7.99169 17.9916 7.70835 18.3333 7.70835C18.675 7.70835 18.9583 7.99169 18.9583 8.33335V12.5C18.9583 17.025 17.025 18.9584 12.5 18.9584Z" fill="#4E4F6C"/>
<path d="M18.3333 8.95834H15C12.15 8.95834 11.0416 7.85001 11.0416 5.00001V1.66668C11.0416 1.41668 11.1916 1.18334 11.425 1.09168C11.6583 0.991678 11.925 1.05001 12.1083 1.22501L18.775 7.89168C18.95 8.06668 19.0083 8.34168 18.9083 8.57501C18.8083 8.80834 18.5833 8.95834 18.3333 8.95834ZM12.2916 3.17501V5.00001C12.2916 7.15001 12.85 7.70834 15 7.70834H16.825L12.2916 3.17501Z" fill="#4E4F6C"/>
</svg>
