<svg width="20" height="20" viewBox="0 0 20 20" fill="none" xmlns="http://www.w3.org/2000/svg">
<path d="M9.99999 18.9584C5.05832 18.9584 1.04166 14.9417 1.04166 10C1.04166 5.05835 5.05832 1.04169 9.99999 1.04169C14.9417 1.04169 18.9583 5.05835 18.9583 10C18.9583 14.9417 14.9417 18.9584 9.99999 18.9584ZM9.99999 2.29169C5.74999 2.29169 2.29166 5.75002 2.29166 10C2.29166 14.25 5.74999 17.7084 9.99999 17.7084C14.25 17.7084 17.7083 14.25 17.7083 10C17.7083 5.75002 14.25 2.29169 9.99999 2.29169Z" fill="#00A578"/>
<path d="M10 12.7083C9.65833 12.7083 9.375 12.425 9.375 12.0833V7.08331C9.375 6.74165 9.65833 6.45831 10 6.45831C10.3417 6.45831 10.625 6.74165 10.625 7.08331V12.0833C10.625 12.425 10.3417 12.7083 10 12.7083Z" fill="#00A578"/>
<path d="M9.99999 13.5417C9.84166 13.5417 9.68332 13.4833 9.55832 13.3583L7.05833 10.8583C6.81666 10.6167 6.81666 10.2167 7.05833 9.97501C7.29999 9.73335 7.69999 9.73335 7.94166 9.97501L9.99999 12.0333L12.0583 9.97501C12.3 9.73335 12.7 9.73335 12.9417 9.97501C13.1833 10.2167 13.1833 10.6167 12.9417 10.8583L10.4417 13.3583C10.3167 13.4833 10.1583 13.5417 9.99999 13.5417Z" fill="#00A578"/>
</svg>
