<svg width="20" height="20" viewBox="0 0 20 20" fill="none" xmlns="http://www.w3.org/2000/svg">
<path d="M5.83335 7.29163H3.33335C2.06669 7.29163 1.04169 6.26663 1.04169 4.99996V3.33329C1.04169 2.06663 2.06669 1.04163 3.33335 1.04163H5.83335C7.10002 1.04163 8.12502 2.06663 8.12502 3.33329V4.99996C8.12502 6.26663 7.10002 7.29163 5.83335 7.29163ZM3.33335 2.29163C2.75835 2.29163 2.29169 2.75829 2.29169 3.33329V4.99996C2.29169 5.57496 2.75835 6.04163 3.33335 6.04163H5.83335C6.40835 6.04163 6.87502 5.57496 6.87502 4.99996V3.33329C6.87502 2.75829 6.40835 2.29163 5.83335 2.29163H3.33335Z" fill="#727E94"/>
<path d="M17.3333 6.45833H14.3333C13.4333 6.45833 12.7083 5.72499 12.7083 4.83332V3.50001C12.7083 2.60001 13.4416 1.875 14.3333 1.875H17.3333C18.2333 1.875 18.9583 2.60834 18.9583 3.50001V4.83332C18.9583 5.73332 18.2333 6.45833 17.3333 6.45833ZM14.3333 3.125C14.1333 3.125 13.9583 3.30001 13.9583 3.50001V4.83332C13.9583 5.03332 14.1333 5.20833 14.3333 5.20833H17.3333C17.5333 5.20833 17.7083 5.03332 17.7083 4.83332V3.50001C17.7083 3.30001 17.5333 3.125 17.3333 3.125H14.3333Z" fill="#727E94"/>
<path d="M17.3333 12.7083H14.3333C13.4333 12.7083 12.7083 11.975 12.7083 11.0833V9.75001C12.7083 8.85001 13.4416 8.125 14.3333 8.125H17.3333C18.2333 8.125 18.9583 8.85834 18.9583 9.75001V11.0833C18.9583 11.9833 18.2333 12.7083 17.3333 12.7083ZM14.3333 9.375C14.1333 9.375 13.9583 9.55001 13.9583 9.75001V11.0833C13.9583 11.2833 14.1333 11.4583 14.3333 11.4583H17.3333C17.5333 11.4583 17.7083 11.2833 17.7083 11.0833V9.75001C17.7083 9.55001 17.5333 9.375 17.3333 9.375H14.3333Z" fill="#727E94"/>
<path d="M13.3333 4.79163H7.5C7.15833 4.79163 6.875 4.50829 6.875 4.16663C6.875 3.82496 7.15833 3.54163 7.5 3.54163H13.3333C13.675 3.54163 13.9583 3.82496 13.9583 4.16663C13.9583 4.50829 13.675 4.79163 13.3333 4.79163Z" fill="#727E94"/>
<path d="M10.4167 4.16663V15C10.4167 15.9166 11.1667 16.6666 12.0834 16.6666H13.3334" fill="white"/>
<path d="M13.3334 17.2916H12.0834C10.8167 17.2916 9.79169 16.2666 9.79169 15V4.16663C9.79169 3.82496 10.075 3.54163 10.4167 3.54163C10.7584 3.54163 11.0417 3.82496 11.0417 4.16663V15C11.0417 15.575 11.5084 16.0416 12.0834 16.0416H13.3334C13.675 16.0416 13.9584 16.325 13.9584 16.6666C13.9584 17.0083 13.675 17.2916 13.3334 17.2916Z" fill="#727E94"/>
<path d="M13.3334 11.0416H10.4167C10.075 11.0416 9.79169 10.7583 9.79169 10.4166C9.79169 10.075 10.075 9.79163 10.4167 9.79163H13.3334C13.675 9.79163 13.9584 10.075 13.9584 10.4166C13.9584 10.7583 13.675 11.0416 13.3334 11.0416Z" fill="#727E94"/>
<path d="M17.3333 18.9583H14.3333C13.4333 18.9583 12.7083 18.225 12.7083 17.3333V16C12.7083 15.1 13.4416 14.375 14.3333 14.375H17.3333C18.2333 14.375 18.9583 15.1083 18.9583 16V17.3333C18.9583 18.2333 18.2333 18.9583 17.3333 18.9583ZM14.3333 15.625C14.1333 15.625 13.9583 15.8 13.9583 16V17.3333C13.9583 17.5333 14.1333 17.7083 14.3333 17.7083H17.3333C17.5333 17.7083 17.7083 17.5333 17.7083 17.3333V16C17.7083 15.8 17.5333 15.625 17.3333 15.625H14.3333Z" fill="#727E94"/>
</svg>
