<svg width="20" height="20" viewBox="0 0 20 20" fill="none" xmlns="http://www.w3.org/2000/svg">
<path d="M7.50003 14.7917C7.15837 14.7917 6.87503 14.5083 6.87503 14.1667V10.675L6.27503 11.275C6.03337 11.5167 5.63337 11.5167 5.3917 11.275C5.15003 11.0333 5.15003 10.6333 5.3917 10.3917L7.05837 8.72501C7.23337 8.55001 7.50837 8.49168 7.7417 8.59168C7.97503 8.68334 8.12503 8.91668 8.12503 9.16668V14.1667C8.12503 14.5083 7.8417 14.7917 7.50003 14.7917Z" fill="#4E4F6C"/>
<path d="M9.16666 11.4583C9.00832 11.4583 8.84999 11.4 8.72499 11.275L7.05833 9.60835C6.81666 9.36668 6.81666 8.96668 7.05833 8.72501C7.29999 8.48335 7.69999 8.48335 7.94166 8.72501L9.60832 10.3917C9.84999 10.6333 9.84999 11.0333 9.60832 11.275C9.48332 11.4 9.32499 11.4583 9.16666 11.4583Z" fill="#4E4F6C"/>
<path d="M12.5 18.9584H7.49996C2.97496 18.9584 1.04163 17.025 1.04163 12.5V7.50002C1.04163 2.97502 2.97496 1.04169 7.49996 1.04169H11.6666C12.0083 1.04169 12.2916 1.32502 12.2916 1.66669C12.2916 2.00835 12.0083 2.29169 11.6666 2.29169H7.49996C3.65829 2.29169 2.29163 3.65835 2.29163 7.50002V12.5C2.29163 16.3417 3.65829 17.7084 7.49996 17.7084H12.5C16.3416 17.7084 17.7083 16.3417 17.7083 12.5V8.33335C17.7083 7.99169 17.9916 7.70835 18.3333 7.70835C18.675 7.70835 18.9583 7.99169 18.9583 8.33335V12.5C18.9583 17.025 17.025 18.9584 12.5 18.9584Z" fill="#4E4F6C"/>
<path d="M18.3333 8.95834H15C12.15 8.95834 11.0416 7.85001 11.0416 5.00001V1.66668C11.0416 1.41668 11.1916 1.18334 11.425 1.09168C11.6583 0.991678 11.925 1.05001 12.1083 1.22501L18.775 7.89168C18.95 8.06668 19.0083 8.34168 18.9083 8.57501C18.8083 8.80834 18.5833 8.95834 18.3333 8.95834ZM12.2916 3.17501V5.00001C12.2916 7.15001 12.85 7.70834 15 7.70834H16.825L12.2916 3.17501Z" fill="#4E4F6C"/>
</svg>
