<svg width="14" height="14" viewBox="0 0 14 14" fill="none" xmlns="http://www.w3.org/2000/svg">
<path d="M7.00002 9.52579C5.60585 9.52579 4.47418 8.39412 4.47418 6.99995C4.47418 5.60579 5.60585 4.47412 7.00002 4.47412C8.39418 4.47412 9.52585 5.60579 9.52585 6.99995C9.52585 8.39412 8.39418 9.52579 7.00002 9.52579ZM7.00002 5.34912C6.09002 5.34912 5.34918 6.08995 5.34918 6.99995C5.34918 7.90995 6.09002 8.65079 7.00002 8.65079C7.91002 8.65079 8.65085 7.90995 8.65085 6.99995C8.65085 6.08995 7.91002 5.34912 7.00002 5.34912Z" fill="#00A578"/>
<path d="M7 12.2616C4.80667 12.2616 2.73584 10.9783 1.3125 8.74995C0.694172 7.78745 0.694172 6.21828 1.3125 5.24995C2.74167 3.02161 4.8125 1.73828 7 1.73828C9.1875 1.73828 11.2583 3.02161 12.6817 5.24995C13.3 6.21245 13.3 7.78161 12.6817 8.74995C11.2583 10.9783 9.1875 12.2616 7 12.2616ZM7 2.61328C5.11584 2.61328 3.31334 3.74495 2.05334 5.72245C1.61584 6.40495 1.61584 7.59495 2.05334 8.27745C3.31334 10.2549 5.11584 11.3866 7 11.3866C8.88417 11.3866 10.6867 10.2549 11.9467 8.27745C12.3842 7.59495 12.3842 6.40495 11.9467 5.72245C10.6867 3.74495 8.88417 2.61328 7 2.61328Z" fill="#00A578"/>
</svg>
