<svg width="16" height="16" viewBox="0 0 16 16" fill="none" xmlns="http://www.w3.org/2000/svg">
<mask id="path-1-inside-1_59_1098" fill="white">
<path d="M4.29999 15.1667C4.02665 15.1667 3.79999 14.94 3.79999 14.6667V1.33337C3.79999 1.06004 4.02665 0.833374 4.29999 0.833374C4.57332 0.833374 4.79999 1.06004 4.79999 1.33337V14.6667C4.79999 14.94 4.57332 15.1667 4.29999 15.1667Z"/>
</mask>
<path d="M4.29999 15.1667C4.02665 15.1667 3.79999 14.94 3.79999 14.6667V1.33337C3.79999 1.06004 4.02665 0.833374 4.29999 0.833374C4.57332 0.833374 4.79999 1.06004 4.79999 1.33337V14.6667C4.79999 14.94 4.57332 15.1667 4.29999 15.1667Z" fill="#727E94"/>
<path d="M4.29999 14.1667C4.57894 14.1667 4.79999 14.3878 4.79999 14.6667H2.79999C2.79999 15.4923 3.47437 16.1667 4.29999 16.1667V14.1667ZM4.79999 14.6667V1.33337H2.79999V14.6667H4.79999ZM4.79999 1.33337C4.79999 1.61233 4.57894 1.83337 4.29999 1.83337V-0.166626C3.47437 -0.166626 2.79999 0.507756 2.79999 1.33337H4.79999ZM4.29999 1.83337C4.02104 1.83337 3.79999 1.61233 3.79999 1.33337H5.79999C5.79999 0.507756 5.12561 -0.166626 4.29999 -0.166626V1.83337ZM3.79999 1.33337V14.6667H5.79999V1.33337H3.79999ZM3.79999 14.6667C3.79999 14.3878 4.02104 14.1667 4.29999 14.1667V16.1667C5.12561 16.1667 5.79999 15.4923 5.79999 14.6667H3.79999Z" fill="#727E94" mask="url(#path-1-inside-1_59_1098)"/>
<path d="M10.037 5.00045C10.4956 5.19556 10.8871 5.43279 11.175 5.70725C11.4599 5.97887 11.6819 6.32595 11.6995 6.73161L11.6995 6.73222C11.7015 6.77804 11.7008 6.8233 11.6977 6.86796L10.037 5.00045ZM10.037 5.00045L4.63978 2.66831C4.63968 2.66827 4.63957 2.66822 4.63947 2.66818C4.63709 2.66711 4.63571 2.6662 4.63497 2.66563L4.635 2.66565L10.035 4.99898L10.035 4.99899L10.0381 5.00033C10.8053 5.3256 11.2111 5.69072 11.4278 5.99302C11.6432 6.29335 11.6935 6.56165 11.7004 6.73255L10.037 5.00045Z" fill="#727E94" stroke="#727E94"/>
</svg>
