<svg width="20" height="20" viewBox="0 0 20 20" fill="none" xmlns="http://www.w3.org/2000/svg">
<path d="M16.7001 5.68336L11.9001 2.32503C10.5918 1.40836 8.58345 1.45836 7.32511 2.43336L3.15011 5.6917C2.31678 6.3417 1.65845 7.67503 1.65845 8.72503V14.475C1.65845 16.6 3.38345 18.3334 5.50845 18.3334H14.4918C16.6168 18.3334 18.3418 16.6084 18.3418 14.4834V8.83336C18.3418 7.70836 17.6168 6.32503 16.7001 5.68336ZM10.6251 15C10.6251 15.3417 10.3418 15.625 10.0001 15.625C9.65845 15.625 9.37511 15.3417 9.37511 15V12.5C9.37511 12.1584 9.65845 11.875 10.0001 11.875C10.3418 11.875 10.6251 12.1584 10.6251 12.5V15Z" fill="#22234A"/>
</svg>
