<svg width="14" height="14" viewBox="0 0 14 14" fill="none" xmlns="http://www.w3.org/2000/svg">
<path d="M6.99996 13.2709C3.54079 13.2709 0.729126 10.4592 0.729126 7.00002C0.729126 3.54085 3.54079 0.729187 6.99996 0.729187C10.4591 0.729187 13.2708 3.54085 13.2708 7.00002C13.2708 10.4592 10.4591 13.2709 6.99996 13.2709ZM6.99996 1.60419C4.02496 1.60419 1.60413 4.02502 1.60413 7.00002C1.60413 9.97502 4.02496 12.3959 6.99996 12.3959C9.97496 12.3959 12.3958 9.97502 12.3958 7.00002C12.3958 4.02502 9.97496 1.60419 6.99996 1.60419Z" fill="#727E94"/>
<path d="M7 8.02085C6.76083 8.02085 6.5625 7.82252 6.5625 7.58335V4.66669C6.5625 4.42752 6.76083 4.22919 7 4.22919C7.23917 4.22919 7.4375 4.42752 7.4375 4.66669V7.58335C7.4375 7.82252 7.23917 8.02085 7 8.02085Z" fill="#727E94"/>
<path d="M6.99996 9.91668C6.92413 9.91668 6.84829 9.89918 6.77829 9.87001C6.70829 9.84085 6.64413 9.80001 6.58579 9.74751C6.53329 9.68918 6.49246 9.63085 6.46329 9.55501C6.43413 9.48501 6.41663 9.40918 6.41663 9.33335C6.41663 9.25751 6.43413 9.18168 6.46329 9.11168C6.49246 9.04168 6.53329 8.97751 6.58579 8.91918C6.64413 8.86668 6.70829 8.82585 6.77829 8.79668C6.91829 8.73835 7.08163 8.73835 7.22163 8.79668C7.29163 8.82585 7.35579 8.86668 7.41413 8.91918C7.46663 8.97751 7.50746 9.04168 7.53663 9.11168C7.56579 9.18168 7.58329 9.25751 7.58329 9.33335C7.58329 9.40918 7.56579 9.48501 7.53663 9.55501C7.50746 9.63085 7.46663 9.68918 7.41413 9.74751C7.35579 9.80001 7.29163 9.84085 7.22163 9.87001C7.15163 9.89918 7.07579 9.91668 6.99996 9.91668Z" fill="#727E94"/>
</svg>
