<svg width="20" height="20" viewBox="0 0 20 20" fill="none" xmlns="http://www.w3.org/2000/svg">
<path d="M9.82498 9.90004C9.37498 9.90004 8.91665 9.81671 8.55831 9.65837L3.64165 7.47504C2.39165 6.91671 2.20831 6.16671 2.20831 5.75837C2.20831 5.35004 2.39165 4.60004 3.64165 4.04171L8.55831 1.85837C9.28331 1.53337 10.375 1.53337 11.1 1.85837L16.025 4.04171C17.2666 4.59171 17.4583 5.35004 17.4583 5.75837C17.4583 6.16671 17.275 6.91671 16.025 7.47504L11.1 9.65837C10.7333 9.82504 10.2833 9.90004 9.82498 9.90004ZM9.82498 2.86671C9.54165 2.86671 9.26665 2.90837 9.06665 3.00004L4.14998 5.18337C3.64165 5.41671 3.45831 5.65004 3.45831 5.75837C3.45831 5.86671 3.64165 6.10837 4.14165 6.33337L9.05831 8.51671C9.45831 8.69171 10.1833 8.69171 10.5833 8.51671L15.5083 6.33337C16.0166 6.10837 16.2 5.86671 16.2 5.75837C16.2 5.65004 16.0166 5.40837 15.5083 5.18337L10.5916 3.00004C10.3916 2.91671 10.1083 2.86671 9.82498 2.86671Z" fill="#727E94"/>
<path d="M10 14.2416C9.68333 14.2416 9.36667 14.175 9.06667 14.0416L3.40833 11.525C2.55 11.15 1.875 10.1083 1.875 9.16663C1.875 8.82496 2.15833 8.54163 2.5 8.54163C2.84167 8.54163 3.125 8.82496 3.125 9.16663C3.125 9.62496 3.5 10.2 3.91667 10.3916L9.575 12.9083C9.84167 13.025 10.15 13.025 10.425 12.9083L16.0833 10.3916C16.5 10.2083 16.875 9.62496 16.875 9.16663C16.875 8.82496 17.1583 8.54163 17.5 8.54163C17.8417 8.54163 18.125 8.82496 18.125 9.16663C18.125 10.1083 17.45 11.15 16.5917 11.5333L10.9333 14.05C10.6333 14.175 10.3167 14.2416 10 14.2416Z" fill="#727E94"/>
<path d="M10 18.4083C9.68333 18.4083 9.36667 18.3416 9.06667 18.2083L3.40833 15.6916C2.475 15.275 1.875 14.35 1.875 13.325C1.875 12.9833 2.15833 12.7 2.5 12.7C2.84167 12.7 3.125 12.9916 3.125 13.3333C3.125 13.8583 3.43333 14.3416 3.91667 14.5583L9.575 17.075C9.84167 17.1916 10.15 17.1916 10.425 17.075L16.0833 14.5583C16.5667 14.3416 16.875 13.8666 16.875 13.3333C16.875 12.9916 17.1583 12.7083 17.5 12.7083C17.8417 12.7083 18.125 12.9916 18.125 13.3333C18.125 14.3583 17.525 15.2833 16.5917 15.7L10.9333 18.2166C10.6333 18.3416 10.3167 18.4083 10 18.4083Z" fill="#727E94"/>
</svg>
