<svg width="14" height="14" viewBox="0 0 14 14" fill="none" xmlns="http://www.w3.org/2000/svg">
<path d="M9.04159 6.5625H4.95825C4.71909 6.5625 4.52075 6.36417 4.52075 6.125C4.52075 5.88583 4.71909 5.6875 4.95825 5.6875H9.04159C9.28075 5.6875 9.47909 5.88583 9.47909 6.125C9.47909 6.36417 9.28075 6.5625 9.04159 6.5625Z" fill="#787CDD"/>
<path d="M9.33341 13.02C9.13508 13.02 8.93675 12.9617 8.76758 12.8508L6.28257 11.1941H4.08341C2.07675 11.1941 0.729248 9.84664 0.729248 7.83998V4.33998C0.729248 2.33331 2.07675 0.985809 4.08341 0.985809H9.91675C11.9234 0.985809 13.2709 2.33331 13.2709 4.33998V7.83998C13.2709 9.69498 12.1159 10.99 10.3542 11.1708V11.9991C10.3542 12.3783 10.1501 12.7225 9.81757 12.8975C9.66591 12.9791 9.49675 13.02 9.33341 13.02ZM4.08341 1.85497C2.57841 1.85497 1.60425 2.82914 1.60425 4.33414V7.83414C1.60425 9.33914 2.57841 10.3133 4.08341 10.3133H6.41675C6.50425 10.3133 6.58592 10.3366 6.66176 10.3891L9.25758 12.1158C9.32174 12.1567 9.38008 12.1392 9.40925 12.1217C9.43842 12.1042 9.48509 12.0691 9.48509 11.9933V10.7508C9.48509 10.5116 9.68342 10.3133 9.92259 10.3133C11.4276 10.3133 12.4018 9.33914 12.4018 7.83414V4.33414C12.4018 2.82914 11.4276 1.85497 9.92259 1.85497H4.08341Z" fill="#787CDD"/>
</svg>
