<svg width="20" height="20" viewBox="0 0 20 20" fill="none" xmlns="http://www.w3.org/2000/svg">
<path d="M14.6083 6.47508C14.55 6.46675 14.4917 6.46675 14.4333 6.47508C13.1417 6.43341 12.1167 5.37508 12.1167 4.07508C12.1167 2.75008 13.1917 1.66675 14.525 1.66675C15.85 1.66675 16.9333 2.74175 16.9333 4.07508C16.925 5.37508 15.9 6.43341 14.6083 6.47508Z" fill="#22234A"/>
<path d="M17.325 12.2501C16.3917 12.8751 15.0833 13.1084 13.875 12.9501C14.1917 12.2668 14.3583 11.5084 14.3667 10.7084C14.3667 9.87509 14.1833 9.08343 13.8333 8.39176C15.0667 8.22509 16.375 8.45843 17.3167 9.08343C18.6333 9.95009 18.6333 11.3751 17.325 12.2501Z" fill="#22234A"/>
<path d="M5.36667 6.47508C5.425 6.46675 5.48333 6.46675 5.54167 6.47508C6.83333 6.43341 7.85833 5.37508 7.85833 4.07508C7.85833 2.74175 6.78333 1.66675 5.45 1.66675C4.125 1.66675 3.05 2.74175 3.05 4.07508C3.05 5.37508 4.075 6.43341 5.36667 6.47508Z" fill="#22234A"/>
<path d="M5.45833 10.7083C5.45833 11.5167 5.63333 12.2833 5.95 12.975C4.775 13.1 3.55 12.85 2.65 12.2583C1.33333 11.3833 1.33333 9.95834 2.65 9.08334C3.54167 8.48334 4.8 8.24167 5.98333 8.37501C5.64166 9.07501 5.45833 9.86667 5.45833 10.7083Z" fill="#22234A"/>
<path d="M10.1 13.225C10.0333 13.2167 9.95833 13.2167 9.88333 13.225C8.35 13.175 7.125 11.9167 7.125 10.3667C7.13333 8.78333 8.40833 7.5 10 7.5C11.5833 7.5 12.8667 8.78333 12.8667 10.3667C12.8583 11.9167 11.6417 13.175 10.1 13.225Z" fill="#22234A"/>
<path d="M7.39167 14.95C6.13333 15.7916 6.13333 17.175 7.39167 18.0083C8.825 18.9666 11.175 18.9666 12.6083 18.0083C13.8667 17.1666 13.8667 15.7833 12.6083 14.95C11.1833 13.9916 8.83333 13.9916 7.39167 14.95Z" fill="#22234A"/>
</svg>
