<svg width="12" height="12" viewBox="0 0 12 12" fill="none" xmlns="http://www.w3.org/2000/svg">
<path d="M5.025 2.445V9.555C5.025 9.85931 4.95945 9.99383 4.88681 10.0622C4.80959 10.135 4.65436 10.2 4.32 10.2H2.505C2.17064 10.2 2.01541 10.135 1.93819 10.0622C1.86555 9.99383 1.8 9.85931 1.8 9.555V2.445C1.8 2.14069 1.86555 2.00617 1.93819 1.93776C2.01541 1.86503 2.17064 1.8 2.505 1.8H4.32C4.65436 1.8 4.80959 1.86503 4.88681 1.93776C4.95945 2.00617 5.025 2.14069 5.025 2.445Z" fill="#787CDD" stroke="#787CDD" stroke-width="0.6"/>
<path d="M10.5 9.555V2.445C10.5 1.77 10.215 1.5 9.49505 1.5H7.68005C6.96505 1.5 6.67505 1.77 6.67505 2.445V9.555C6.67505 10.23 6.96005 10.5 7.68005 10.5H9.49505C10.215 10.5 10.5 10.23 10.5 9.555Z" fill="#787CDD"/>
</svg>
