<svg width="20" height="20" viewBox="0 0 20 20" fill="none" xmlns="http://www.w3.org/2000/svg">
<path d="M14.9999 6.59148C14.9749 6.59148 14.9583 6.59148 14.9333 6.59148H14.8916C13.3166 6.54148 12.1416 5.32481 12.1416 3.82481C12.1416 2.29147 13.3916 1.0498 14.9166 1.0498C16.4416 1.0498 17.6916 2.29981 17.6916 3.82481C17.6833 5.33314 16.5083 6.54981 15.0083 6.59981C15.0083 6.59147 15.0083 6.59148 14.9999 6.59148ZM14.9166 2.29148C14.0749 2.29148 13.3916 2.97481 13.3916 3.81648C13.3916 4.64148 14.0333 5.30815 14.8583 5.34148C14.8666 5.33315 14.9333 5.33315 15.0083 5.34148C15.8166 5.29981 16.4416 4.63314 16.4499 3.81648C16.4499 2.97481 15.7666 2.29148 14.9166 2.29148Z" fill="#727E94"/>
<path d="M15.0083 12.7334C14.6833 12.7334 14.3583 12.7084 14.0333 12.65C13.6916 12.5917 13.4666 12.2667 13.5249 11.925C13.5833 11.5834 13.9083 11.3584 14.2499 11.4167C15.2749 11.5917 16.3583 11.4 17.0833 10.9167C17.4749 10.6584 17.6833 10.3334 17.6833 10.0084C17.6833 9.68337 17.4666 9.3667 17.0833 9.10837C16.3583 8.62504 15.2583 8.43337 14.2249 8.61671C13.8833 8.68337 13.5583 8.45004 13.4999 8.10837C13.4416 7.76671 13.6666 7.44171 14.0083 7.38338C15.3666 7.14171 16.7749 7.40004 17.7749 8.0667C18.5083 8.55837 18.9333 9.25837 18.9333 10.0084C18.9333 10.75 18.5166 11.4584 17.7749 11.9584C17.0166 12.4584 16.0333 12.7334 15.0083 12.7334Z" fill="#727E94"/>
<path d="M4.9749 6.59169C4.96657 6.59169 4.95824 6.59169 4.95824 6.59169C3.45824 6.54169 2.28324 5.32502 2.2749 3.82502C2.2749 2.29168 3.5249 1.04169 5.0499 1.04169C6.5749 1.04169 7.8249 2.29169 7.8249 3.81669C7.8249 5.32502 6.6499 6.54169 5.1499 6.59169L4.9749 5.96669L5.03324 6.59169C5.01657 6.59169 4.99157 6.59169 4.9749 6.59169ZM5.05824 5.34169C5.10824 5.34169 5.1499 5.34169 5.1999 5.35002C5.94157 5.31669 6.59157 4.65002 6.59157 3.82502C6.59157 2.98335 5.90824 2.30002 5.06657 2.30002C4.2249 2.30002 3.54157 2.98335 3.54157 3.82502C3.54157 4.64168 4.1749 5.30002 4.98324 5.35002C4.99157 5.34169 5.0249 5.34169 5.05824 5.34169Z" fill="#727E94"/>
<path d="M4.96675 12.7334C3.94175 12.7334 2.95841 12.4584 2.20008 11.9584C1.46675 11.4667 1.04175 10.7584 1.04175 10.0084C1.04175 9.26671 1.46675 8.55837 2.20008 8.0667C3.20008 7.40004 4.60841 7.14171 5.96675 7.38338C6.30841 7.44171 6.53342 7.76671 6.47508 8.10837C6.41675 8.45004 6.09175 8.68337 5.75008 8.61671C4.71675 8.43337 3.62508 8.62504 2.89175 9.10837C2.50008 9.3667 2.29175 9.68337 2.29175 10.0084C2.29175 10.3334 2.50842 10.6584 2.89175 10.9167C3.61675 11.4 4.70008 11.5917 5.72508 11.4167C6.06675 11.3584 6.39175 11.5917 6.45008 11.925C6.50842 12.2667 6.28342 12.5917 5.94175 12.65C5.61675 12.7084 5.29175 12.7334 4.96675 12.7334Z" fill="#727E94"/>
<path d="M9.99994 12.8166C9.97494 12.8166 9.95827 12.8166 9.93327 12.8166H9.8916C8.3166 12.7666 7.1416 11.55 7.1416 10.05C7.1416 8.51663 8.3916 7.27496 9.9166 7.27496C11.4416 7.27496 12.6916 8.52496 12.6916 10.05C12.6833 11.5583 11.5083 12.775 10.0083 12.825C10.0083 12.8166 10.0083 12.8166 9.99994 12.8166ZM9.9166 8.51663C9.07494 8.51663 8.3916 9.19997 8.3916 10.0416C8.3916 10.8666 9.03327 11.5333 9.85827 11.5666C9.8666 11.5583 9.93327 11.5583 10.0083 11.5666C10.8166 11.525 11.4416 10.8583 11.4499 10.0416C11.4499 9.2083 10.7666 8.51663 9.9166 8.51663Z" fill="#727E94"/>
<path d="M9.99974 18.9667C8.99974 18.9667 7.99974 18.7083 7.22474 18.1833C6.49141 17.6917 6.06641 16.9917 6.06641 16.2417C6.06641 15.5 6.48307 14.7833 7.22474 14.2917C8.78307 13.2583 11.2247 13.2583 12.7747 14.2917C13.5081 14.7833 13.9331 15.4833 13.9331 16.2333C13.9331 16.975 13.5164 17.6917 12.7747 18.1833C11.9997 18.7 10.9997 18.9667 9.99974 18.9667ZM7.91641 15.3417C7.52474 15.6 7.31641 15.925 7.31641 16.25C7.31641 16.575 7.53307 16.8917 7.91641 17.15C9.04141 17.9083 10.9497 17.9083 12.0747 17.15C12.4664 16.8917 12.6747 16.5667 12.6747 16.2417C12.6747 15.9167 12.4581 15.6 12.0747 15.3417C10.9581 14.5833 9.04974 14.5917 7.91641 15.3417Z" fill="#727E94"/>
</svg>
