<svg width="24" height="24" viewBox="0 0 24 24" fill="none" xmlns="http://www.w3.org/2000/svg">
<path d="M5.925 12C5.925 10.7175 6.9675 9.675 8.25 9.675H11.25V8.25H8.25C6.18 8.25 4.5 9.93 4.5 12C4.5 14.07 6.18 15.75 8.25 15.75H11.25V14.325H8.25C6.9675 14.325 5.925 13.2825 5.925 12ZM9 12.75H15V11.25H9V12.75ZM15.75 8.25H12.75V9.675H15.75C17.0325 9.675 18.075 10.7175 18.075 12C18.075 13.2825 17.0325 14.325 15.75 14.325H12.75V15.75H15.75C17.82 15.75 19.5 14.07 19.5 12C19.5 9.93 17.82 8.25 15.75 8.25Z" fill="#A7A7B5"/>
</svg>
