<svg width="24" height="24" viewBox="0 0 24 24" fill="none" xmlns="http://www.w3.org/2000/svg">
<path d="M6.1875 10.875C5.565 10.875 5.0625 11.3775 5.0625 12C5.0625 12.6225 5.565 13.125 6.1875 13.125C6.81 13.125 7.3125 12.6225 7.3125 12C7.3125 11.3775 6.81 10.875 6.1875 10.875ZM6.1875 6.375C5.565 6.375 5.0625 6.8775 5.0625 7.5C5.0625 8.1225 5.565 8.625 6.1875 8.625C6.81 8.625 7.3125 8.1225 7.3125 7.5C7.3125 6.8775 6.81 6.375 6.1875 6.375ZM6.1875 15.375C5.565 15.375 5.0625 15.885 5.0625 16.5C5.0625 17.115 5.5725 17.625 6.1875 17.625C6.8025 17.625 7.3125 17.115 7.3125 16.5C7.3125 15.885 6.81 15.375 6.1875 15.375ZM8.4375 17.25H18.9375V15.75H8.4375V17.25ZM8.4375 12.75H18.9375V11.25H8.4375V12.75ZM8.4375 6.75V8.25H18.9375V6.75H8.4375Z" fill="#A7A7B5"/>
</svg>
