<svg width="20" height="20" viewBox="0 0 20 20" fill="none" xmlns="http://www.w3.org/2000/svg">
<path d="M15.3917 18.9583H12.0583C10.0417 18.9583 8.93335 17.85 8.93335 15.8333V4.16663C8.93335 2.14996 10.0417 1.04163 12.0583 1.04163H15.3917C17.4083 1.04163 18.5167 2.14996 18.5167 4.16663V15.8333C18.5167 17.85 17.4 18.9583 15.3917 18.9583ZM12.0583 2.29163C10.7417 2.29163 10.1833 2.84996 10.1833 4.16663V15.8333C10.1833 17.15 10.7417 17.7083 12.0583 17.7083H15.3917C16.7083 17.7083 17.2667 17.15 17.2667 15.8333V4.16663C17.2667 2.84996 16.7083 2.29163 15.3917 2.29163H12.0583Z" fill="#727E94"/>
<path d="M13.725 5.625H9.55835C9.21668 5.625 8.93335 5.34167 8.93335 5C8.93335 4.65833 9.21668 4.375 9.55835 4.375H13.725C14.0667 4.375 14.35 4.65833 14.35 5C14.35 5.34167 14.0667 5.625 13.725 5.625Z" fill="#727E94"/>
<path d="M12.8917 15.625H9.55835C9.21668 15.625 8.93335 15.3417 8.93335 15C8.93335 14.6583 9.21668 14.375 9.55835 14.375H12.8917C13.2334 14.375 13.5167 14.6583 13.5167 15C13.5167 15.3417 13.2334 15.625 12.8917 15.625Z" fill="#727E94"/>
<path d="M13.725 12.2917C13.7167 12.2917 13.7167 12.2917 13.725 12.2917L9.55001 12.25C9.20835 12.25 8.92501 11.9667 8.93335 11.6167C8.93335 11.275 9.21668 11 9.55835 11C9.55835 11 9.55835 11 9.56668 11L13.7333 11.0417C14.075 11.0417 14.3583 11.325 14.35 11.675C14.3417 12.0167 14.0667 12.2917 13.725 12.2917Z" fill="#727E94"/>
<path d="M12.0583 8.95837H9.55835C9.21668 8.95837 8.93335 8.67504 8.93335 8.33337C8.93335 7.99171 9.21668 7.70837 9.55835 7.70837H12.0583C12.4 7.70837 12.6833 7.99171 12.6833 8.33337C12.6833 8.67504 12.4 8.95837 12.0583 8.95837Z" fill="#727E94"/>
<path d="M4.575 18.9333C3.81667 18.9333 3.1 18.4666 2.60834 17.65L1.925 16.5166C1.675 16.1 1.48334 15.4166 1.48334 14.9333V4.12496C1.48334 2.42496 2.86667 1.04163 4.56667 1.04163C6.26667 1.04163 7.65 2.42496 7.65 4.12496V14.925C7.65 15.4083 7.45834 16.0916 7.20834 16.5083L6.525 17.6416C6.05 18.4666 5.33334 18.9333 4.575 18.9333ZM4.575 2.29163C3.56667 2.29163 2.74167 3.11663 2.74167 4.12496V14.925C2.74167 15.1833 2.86667 15.6416 3 15.8666L3.68334 17C3.94167 17.4333 4.26667 17.675 4.575 17.675C4.88334 17.675 5.20834 17.425 5.46667 17L6.15 15.8666C6.28334 15.6416 6.40834 15.1833 6.40834 14.925V4.12496C6.40834 3.11663 5.58334 2.29163 4.575 2.29163Z" fill="#727E94"/>
<path d="M7.03334 6.45837H2.10834C1.76667 6.45837 1.48334 6.17504 1.48334 5.83337C1.48334 5.49171 1.76667 5.20837 2.10834 5.20837H7.03334C7.375 5.20837 7.65834 5.49171 7.65834 5.83337C7.65834 6.17504 7.375 6.45837 7.03334 6.45837Z" fill="#727E94"/>
</svg>
