<svg width="20" height="20" viewBox="0 0 20 20" fill="none" xmlns="http://www.w3.org/2000/svg">
<path d="M15.3917 1.66669H12.0583C10.8423 1.66669 9.83232 2.6906 9.60584 3.87797C9.5541 4.14922 9.78221 4.37502 10.0583 4.37502H13.725C14.0667 4.37502 14.35 4.65835 14.35 5.00002C14.35 5.34169 14.0667 5.62502 13.725 5.62502H10.0583C9.78221 5.62502 9.55835 5.84888 9.55835 6.12502V7.20835C9.55835 7.4845 9.78221 7.70835 10.0583 7.70835H11.9C12.2417 7.70835 12.525 7.99169 12.525 8.33335C12.525 8.67502 12.2417 8.95835 11.9 8.95835H10.0583C9.78221 8.95835 9.55835 9.18221 9.55835 9.45835V10.505C9.55835 10.7792 9.77917 11.0022 10.0533 11.005L13.725 11.0417C14.075 11.0417 14.35 11.325 14.35 11.675C14.3417 12.0167 14.0667 12.2917 13.725 12.2917C13.7167 12.2917 13.7167 12.2917 13.7167 12.2917L10.0634 12.2551C9.78527 12.2523 9.55835 12.477 9.55835 12.7551V13.875C9.55835 14.1512 9.78221 14.375 10.0583 14.375H12.8083C13.1583 14.375 13.4334 14.6584 13.4334 15C13.4334 15.3417 13.1583 15.625 12.8083 15.625H10.0583C9.78221 15.625 9.5541 15.8508 9.60584 16.1221C9.83232 17.3094 10.8423 18.3334 12.0583 18.3334H15.3917C16.7667 18.3334 17.8917 17.2167 17.8917 15.8334V4.16669C17.8917 2.78335 16.7667 1.66669 15.3917 1.66669Z" fill="#22234A"/>
<path d="M7.03334 4.12502V4.70835C7.03334 4.9845 6.80948 5.20835 6.53334 5.20835H2.60834C2.33219 5.20835 2.10834 4.9845 2.10834 4.70835V4.12502C2.10834 2.77502 3.21667 1.66669 4.575 1.66669C5.925 1.66669 7.03334 2.77502 7.03334 4.12502Z" fill="#22234A"/>
<path d="M2.10834 14.925C2.10834 15.3 2.26667 15.875 2.46667 16.1916L3.14167 17.325C3.93334 18.6416 5.21667 18.6416 6 17.325L6.68334 16.1916C6.875 15.875 7.03334 15.3 7.03334 14.925V6.95831C7.03334 6.68217 6.80948 6.45831 6.53334 6.45831H2.60834C2.33219 6.45831 2.10834 6.68217 2.10834 6.95831V14.925Z" fill="#22234A"/>
</svg>
