<svg width="14" height="14" viewBox="0 0 14 14" fill="none" xmlns="http://www.w3.org/2000/svg">
<path d="M3.50001 7.58337C1.89001 7.58337 0.583344 8.88421 0.583344 10.5C0.583344 12.1159 1.89001 13.4167 3.50001 13.4167C5.11001 13.4167 6.41668 12.11 6.41668 10.5C6.41668 8.89004 5.11584 7.58337 3.50001 7.58337ZM2.31001 9.31004H3.50001C3.72168 9.31004 3.89668 9.49087 3.89668 9.70671C3.89668 9.92254 3.72168 10.1034 3.50001 10.1034H2.31001C2.08834 10.1034 1.91334 9.92254 1.91334 9.70671C1.91334 9.49087 2.08834 9.31004 2.31001 9.31004ZM4.69001 11.69H2.31001C2.08834 11.69 1.91334 11.5092 1.91334 11.2934C1.91334 11.0775 2.09418 10.8967 2.31001 10.8967H4.69584C4.91751 10.8967 5.09251 11.0775 5.09251 11.2934C5.09251 11.5092 4.91168 11.69 4.69001 11.69Z" fill="#4E4F6C"/>
<path d="M9.91666 1.75H4.08332C2.33332 1.75 1.16666 2.625 1.16666 4.66667V6.49833C1.16666 6.92417 1.60416 7.1925 1.99499 7.02333C2.63666 6.74333 3.36582 6.63833 4.12999 6.76083C5.65832 7.01167 6.90666 8.21917 7.21582 9.73583C7.30332 10.1792 7.31499 10.6108 7.25666 11.025C7.20999 11.3692 7.48999 11.6725 7.83416 11.6725H9.91666C11.6667 11.6725 12.8333 10.7975 12.8333 8.75583V4.66667C12.8333 2.625 11.6667 1.75 9.91666 1.75ZM10.1908 5.01083L8.36499 6.46917C7.97999 6.77833 7.48999 6.93 6.99999 6.93C6.50999 6.93 6.01416 6.77833 5.63499 6.46917L3.80916 5.01083C3.62249 4.85917 3.59332 4.57917 3.73916 4.3925C3.89082 4.20583 4.16499 4.17083 4.35166 4.3225L6.17749 5.78083C6.62082 6.13667 7.37332 6.13667 7.81666 5.78083L9.64249 4.3225C9.82916 4.17083 10.1092 4.2 10.255 4.3925C10.4067 4.57917 10.3775 4.85917 10.1908 5.01083Z" fill="#4E4F6C"/>
</svg>
