<svg width="16" height="16" viewBox="0 0 16 16" fill="none" xmlns="http://www.w3.org/2000/svg">
<mask id="path-1-inside-1_2_2830" fill="white">
<path d="M7.66659 14.5C3.89992 14.5 0.833252 11.4334 0.833252 7.66671C0.833252 3.90004 3.89992 0.833374 7.66659 0.833374C11.4333 0.833374 14.4999 3.90004 14.4999 7.66671C14.4999 11.4334 11.4333 14.5 7.66659 14.5ZM7.66659 1.83337C4.44659 1.83337 1.83325 4.45337 1.83325 7.66671C1.83325 10.88 4.44659 13.5 7.66659 13.5C10.8866 13.5 13.4999 10.88 13.4999 7.66671C13.4999 4.45337 10.8866 1.83337 7.66659 1.83337Z"/>
</mask>
<path d="M7.66659 14.5C3.89992 14.5 0.833252 11.4334 0.833252 7.66671C0.833252 3.90004 3.89992 0.833374 7.66659 0.833374C11.4333 0.833374 14.4999 3.90004 14.4999 7.66671C14.4999 11.4334 11.4333 14.5 7.66659 14.5ZM7.66659 1.83337C4.44659 1.83337 1.83325 4.45337 1.83325 7.66671C1.83325 10.88 4.44659 13.5 7.66659 13.5C10.8866 13.5 13.4999 10.88 13.4999 7.66671C13.4999 4.45337 10.8866 1.83337 7.66659 1.83337Z" fill="#727E94"/>
<path d="M7.66659 13.5C4.4522 13.5 1.83325 10.8811 1.83325 7.66671H-0.166748C-0.166748 11.9857 3.34763 15.5 7.66659 15.5V13.5ZM1.83325 7.66671C1.83325 4.45233 4.4522 1.83337 7.66659 1.83337V-0.166626C3.34763 -0.166626 -0.166748 3.34776 -0.166748 7.66671H1.83325ZM7.66659 1.83337C10.881 1.83337 13.4999 4.45233 13.4999 7.66671H15.4999C15.4999 3.34776 11.9855 -0.166626 7.66659 -0.166626V1.83337ZM13.4999 7.66671C13.4999 10.8811 10.881 13.5 7.66659 13.5V15.5C11.9855 15.5 15.4999 11.9857 15.4999 7.66671H13.4999ZM7.66659 0.833374C3.89356 0.833374 0.833252 3.90183 0.833252 7.66671H2.83325C2.83325 5.00492 4.99961 2.83337 7.66659 2.83337V0.833374ZM0.833252 7.66671C0.833252 11.4316 3.89356 14.5 7.66659 14.5V12.5C4.99961 12.5 2.83325 10.3285 2.83325 7.66671H0.833252ZM7.66659 14.5C11.4396 14.5 14.4999 11.4316 14.4999 7.66671H12.4999C12.4999 10.3285 10.3336 12.5 7.66659 12.5V14.5ZM14.4999 7.66671C14.4999 3.90183 11.4396 0.833374 7.66659 0.833374V2.83337C10.3336 2.83337 12.4999 5.00492 12.4999 7.66671H14.4999Z" fill="#727E94" mask="url(#path-1-inside-1_2_2830)"/>
<mask id="path-3-inside-2_2_2830" fill="white">
<path d="M14.6666 15.1666C14.54 15.1666 14.4133 15.12 14.3133 15.02L12.98 13.6866C12.7866 13.4933 12.7866 13.1733 12.98 12.98C13.1733 12.7866 13.4933 12.7866 13.6866 12.98L15.02 14.3133C15.2133 14.5066 15.2133 14.8266 15.02 15.02C14.92 15.12 14.7933 15.1666 14.6666 15.1666Z"/>
</mask>
<path d="M14.6666 15.1666C14.54 15.1666 14.4133 15.12 14.3133 15.02L12.98 13.6866C12.7866 13.4933 12.7866 13.1733 12.98 12.98C13.1733 12.7866 13.4933 12.7866 13.6866 12.98L15.02 14.3133C15.2133 14.5066 15.2133 14.8266 15.02 15.02C14.92 15.12 14.7933 15.1666 14.6666 15.1666Z" fill="#727E94"/>
<path d="M14.3133 15.02L13.6062 15.7271L14.3133 15.02ZM12.98 13.6866L13.6871 12.9795L12.98 13.6866ZM13.6866 12.98L12.9795 13.6871L13.6866 12.98ZM15.02 14.3133L15.7271 13.6062L15.02 14.3133ZM14.6666 14.1666C14.7909 14.1666 14.923 14.2154 15.0204 14.3129L13.6062 15.7271C13.9036 16.0245 14.2891 16.1666 14.6666 16.1666V14.1666ZM15.0204 14.3129L13.6871 12.9795L12.2729 14.3937L13.6062 15.7271L15.0204 14.3129ZM13.6871 12.9795C13.8843 13.1767 13.8843 13.4899 13.6871 13.6871L12.2729 12.2729C11.689 12.8567 11.689 13.8099 12.2729 14.3937L13.6871 12.9795ZM13.6871 13.6871C13.4899 13.8843 13.1767 13.8843 12.9795 13.6871L14.3937 12.2729C13.8099 11.689 12.8567 11.689 12.2729 12.2729L13.6871 13.6871ZM12.9795 13.6871L14.3129 15.0204L15.7271 13.6062L14.3937 12.2729L12.9795 13.6871ZM14.3129 15.0204C14.1157 14.8232 14.1157 14.51 14.3129 14.3129L15.7271 15.7271C16.3109 15.1432 16.3109 14.19 15.7271 13.6062L14.3129 15.0204ZM14.3129 14.3129C14.4103 14.2154 14.5424 14.1666 14.6666 14.1666V16.1666C15.0442 16.1666 15.4296 16.0245 15.7271 15.7271L14.3129 14.3129Z" fill="#727E94" mask="url(#path-3-inside-2_2_2830)"/>
</svg>
