<svg width="16" height="16" viewBox="0 0 16 16" fill="none" xmlns="http://www.w3.org/2000/svg">
<mask id="path-1-inside-1_151_2974" fill="white">
<path d="M10 15.1667H6.00001C2.38001 15.1667 0.833344 13.62 0.833344 10V6C0.833344 2.38 2.38001 0.833328 6.00001 0.833328H10C13.62 0.833328 15.1667 2.38 15.1667 6V10C15.1667 13.62 13.62 15.1667 10 15.1667ZM6.00001 1.83333C2.92668 1.83333 1.83334 2.92666 1.83334 6V10C1.83334 13.0733 2.92668 14.1667 6.00001 14.1667H10C13.0733 14.1667 14.1667 13.0733 14.1667 10V6C14.1667 2.92666 13.0733 1.83333 10 1.83333H6.00001Z"/>
</mask>
<path d="M10 15.1667H6.00001C2.38001 15.1667 0.833344 13.62 0.833344 10V6C0.833344 2.38 2.38001 0.833328 6.00001 0.833328H10C13.62 0.833328 15.1667 2.38 15.1667 6V10C15.1667 13.62 13.62 15.1667 10 15.1667ZM6.00001 1.83333C2.92668 1.83333 1.83334 2.92666 1.83334 6V10C1.83334 13.0733 2.92668 14.1667 6.00001 14.1667H10C13.0733 14.1667 14.1667 13.0733 14.1667 10V6C14.1667 2.92666 13.0733 1.83333 10 1.83333H6.00001Z" fill="#4E4F6C"/>
<path d="M10 14.1667H6.00001V16.1667H10V14.1667ZM6.00001 14.1667C4.3048 14.1667 3.33319 13.8006 2.76628 13.2337C2.19938 12.6668 1.83334 11.6952 1.83334 10H-0.166656C-0.166656 11.9248 0.240644 13.5365 1.35207 14.6479C2.4635 15.7594 4.07522 16.1667 6.00001 16.1667V14.1667ZM1.83334 10V6H-0.166656V10H1.83334ZM1.83334 6C1.83334 4.30479 2.19938 3.33318 2.76628 2.76627C3.33319 2.19936 4.3048 1.83333 6.00001 1.83333V-0.166672C4.07522 -0.166672 2.4635 0.240629 1.35207 1.35206C0.240644 2.46348 -0.166656 4.0752 -0.166656 6H1.83334ZM6.00001 1.83333H10V-0.166672H6.00001V1.83333ZM10 1.83333C11.6952 1.83333 12.6668 2.19936 13.2337 2.76627C13.8006 3.33318 14.1667 4.30479 14.1667 6H16.1667C16.1667 4.0752 15.7594 2.46348 14.648 1.35206C13.5365 0.240629 11.9248 -0.166672 10 -0.166672V1.83333ZM14.1667 6V10H16.1667V6H14.1667ZM14.1667 10C14.1667 11.6952 13.8006 12.6668 13.2337 13.2337C12.6668 13.8006 11.6952 14.1667 10 14.1667V16.1667C11.9248 16.1667 13.5365 15.7594 14.648 14.6479C15.7594 13.5365 16.1667 11.9248 16.1667 10H14.1667ZM6.00001 0.833328C4.39279 0.833328 3.00532 1.1088 2.05707 2.05705C1.10882 3.00531 0.833344 4.39278 0.833344 6H2.83334C2.83334 4.53388 3.10454 3.83802 3.47128 3.47127C3.83803 3.10452 4.5339 2.83333 6.00001 2.83333V0.833328ZM0.833344 6V10H2.83334V6H0.833344ZM0.833344 10C0.833344 11.6072 1.10882 12.9947 2.05707 13.9429C3.00532 14.8912 4.39279 15.1667 6.00001 15.1667V13.1667C4.5339 13.1667 3.83803 12.8955 3.47128 12.5287C3.10454 12.162 2.83334 11.4661 2.83334 10H0.833344ZM6.00001 15.1667H10V13.1667H6.00001V15.1667ZM10 15.1667C11.6072 15.1667 12.9947 14.8912 13.943 13.9429C14.8912 12.9947 15.1667 11.6072 15.1667 10H13.1667C13.1667 11.4661 12.8955 12.162 12.5287 12.5287C12.162 12.8955 11.4661 13.1667 10 13.1667V15.1667ZM15.1667 10V6H13.1667V10H15.1667ZM15.1667 6C15.1667 4.39278 14.8912 3.00531 13.943 2.05705C12.9947 1.1088 11.6072 0.833328 10 0.833328V2.83333C11.4661 2.83333 12.162 3.10452 12.5287 3.47127C12.8955 3.83802 13.1667 4.53388 13.1667 6H15.1667ZM10 0.833328H6.00001V2.83333H10V0.833328Z" fill="#4E4F6C" mask="url(#path-1-inside-1_151_2974)"/>
<mask id="path-3-inside-2_151_2974" fill="white">
<path d="M7.05333 10.3867C6.92 10.3867 6.79334 10.3333 6.7 10.24L4.81333 8.35334C4.62 8.16 4.62 7.84 4.81333 7.64667C5.00667 7.45334 5.32667 7.45334 5.52 7.64667L7.05333 9.18L10.48 5.75334C10.6733 5.56 10.9933 5.56 11.1867 5.75334C11.38 5.94667 11.38 6.26667 11.1867 6.46L7.40667 10.24C7.31333 10.3333 7.18667 10.3867 7.05333 10.3867Z"/>
</mask>
<path d="M7.05333 10.3867C6.92 10.3867 6.79334 10.3333 6.7 10.24L4.81333 8.35334C4.62 8.16 4.62 7.84 4.81333 7.64667C5.00667 7.45334 5.32667 7.45334 5.52 7.64667L7.05333 9.18L10.48 5.75334C10.6733 5.56 10.9933 5.56 11.1867 5.75334C11.38 5.94667 11.38 6.26667 11.1867 6.46L7.40667 10.24C7.31333 10.3333 7.18667 10.3867 7.05333 10.3867Z" fill="#4E4F6C"/>
<path d="M6.7 10.24L7.40711 9.5329V9.5329L6.7 10.24ZM4.81333 8.35334L4.10623 9.06044L4.81333 8.35334ZM5.52 7.64667L6.22711 6.93956H6.22711L5.52 7.64667ZM7.05333 9.18L6.34623 9.88711L7.05333 10.5942L7.76044 9.88711L7.05333 9.18ZM10.48 5.75334L11.1871 6.46044L10.48 5.75334ZM11.1867 6.46L11.8938 7.16711V7.16711L11.1867 6.46ZM7.40667 10.24L6.69956 9.5329L6.69956 9.5329L7.40667 10.24ZM7.05333 9.38667C7.18823 9.38667 7.31505 9.44083 7.40711 9.5329L5.9929 10.9471C6.27162 11.2258 6.65177 11.3867 7.05333 11.3867V9.38667ZM7.40711 9.5329L5.52044 7.64623L4.10623 9.06044L5.9929 10.9471L7.40711 9.5329ZM5.52044 7.64623C5.71763 7.84342 5.71763 8.15659 5.52044 8.35378L4.10623 6.93956C3.52237 7.52342 3.52237 8.47659 4.10623 9.06044L5.52044 7.64623ZM5.52044 8.35378C5.32325 8.55097 5.01009 8.55097 4.81289 8.35378L6.22711 6.93956C5.64325 6.35571 4.69009 6.35571 4.10623 6.93956L5.52044 8.35378ZM4.81289 8.35378L6.34623 9.88711L7.76044 8.4729L6.22711 6.93956L4.81289 8.35378ZM7.76044 9.88711L11.1871 6.46044L9.77289 5.04623L6.34623 8.4729L7.76044 9.88711ZM11.1871 6.46044C10.9899 6.65764 10.6768 6.65764 10.4796 6.46044L11.8938 5.04623C11.3099 4.46237 10.3568 4.46237 9.77289 5.04623L11.1871 6.46044ZM10.4796 6.46044C10.2824 6.26325 10.2824 5.95009 10.4796 5.7529L11.8938 7.16711C12.4776 6.58325 12.4776 5.63009 11.8938 5.04623L10.4796 6.46044ZM10.4796 5.7529L6.69956 9.5329L8.11377 10.9471L11.8938 7.16711L10.4796 5.7529ZM6.69956 9.5329C6.79162 9.44083 6.91844 9.38667 7.05333 9.38667V11.3867C7.4549 11.3867 7.83505 11.2258 8.11378 10.9471L6.69956 9.5329Z" fill="#4E4F6C" mask="url(#path-3-inside-2_151_2974)"/>
</svg>
