<svg width="20" height="20" viewBox="0 0 20 20" fill="none" xmlns="http://www.w3.org/2000/svg">
<path d="M17.5001 16.875H9.16675C8.82508 16.875 8.54175 16.5917 8.54175 16.25C8.54175 15.9083 8.82508 15.625 9.16675 15.625H17.5001C17.8417 15.625 18.1251 15.9083 18.1251 16.25C18.1251 16.5917 17.8417 16.875 17.5001 16.875Z" fill="#727E94"/>
<path d="M17.5001 11.0417H9.16675C8.82508 11.0417 8.54175 10.7584 8.54175 10.4167C8.54175 10.075 8.82508 9.79169 9.16675 9.79169H17.5001C17.8417 9.79169 18.1251 10.075 18.1251 10.4167C18.1251 10.7584 17.8417 11.0417 17.5001 11.0417Z" fill="#727E94"/>
<path d="M17.5001 5.20831H9.16675C8.82508 5.20831 8.54175 4.92498 8.54175 4.58331C8.54175 4.24165 8.82508 3.95831 9.16675 3.95831H17.5001C17.8417 3.95831 18.1251 4.24165 18.1251 4.58331C18.1251 4.92498 17.8417 5.20831 17.5001 5.20831Z" fill="#727E94"/>
<path d="M3.33345 6.04168C3.17511 6.04168 3.01678 5.98335 2.89178 5.85835L2.05845 5.02501C1.81678 4.78335 1.81678 4.38335 2.05845 4.14168C2.30011 3.90001 2.70011 3.90001 2.94178 4.14168L3.33345 4.53335L5.39178 2.47501C5.63345 2.23335 6.03345 2.23335 6.27511 2.47501C6.51678 2.71668 6.51678 3.11668 6.27511 3.35835L3.77511 5.85835C3.65011 5.98335 3.49178 6.04168 3.33345 6.04168Z" fill="#727E94"/>
<path d="M3.33345 11.875C3.17511 11.875 3.01678 11.8167 2.89178 11.6917L2.05845 10.8583C1.81678 10.6167 1.81678 10.2167 2.05845 9.97499C2.30011 9.73333 2.70011 9.73333 2.94178 9.97499L3.33345 10.3667L5.39178 8.30833C5.63345 8.06666 6.03345 8.06666 6.27511 8.30833C6.51678 8.54999 6.51678 8.94999 6.27511 9.19166L3.77511 11.6917C3.65011 11.8167 3.49178 11.875 3.33345 11.875Z" fill="#727E94"/>
<path d="M3.33345 17.7083C3.17511 17.7083 3.01678 17.65 2.89178 17.525L2.05845 16.6916C1.81678 16.45 1.81678 16.05 2.05845 15.8083C2.30011 15.5666 2.70011 15.5666 2.94178 15.8083L3.33345 16.2L5.39178 14.1416C5.63345 13.9 6.03345 13.9 6.27511 14.1416C6.51678 14.3833 6.51678 14.7833 6.27511 15.025L3.77511 17.525C3.65011 17.65 3.49178 17.7083 3.33345 17.7083Z" fill="#727E94"/>
</svg>
