<svg width="20" height="20" viewBox="0 0 20 20" fill="none" xmlns="http://www.w3.org/2000/svg">
<path d="M16.6667 16.05H9.10838C8.73338 16.05 8.42505 15.7417 8.42505 15.3667C8.42505 14.9917 8.73338 14.6833 9.10838 14.6833H16.6667C17.0417 14.6833 17.35 14.9917 17.35 15.3667C17.35 15.75 17.0417 16.05 16.6667 16.05Z" fill="#22234A"/>
<path d="M16.6667 10.8083H9.10838C8.73338 10.8083 8.42505 10.5 8.42505 10.125C8.42505 9.74998 8.73338 9.44165 9.10838 9.44165H16.6667C17.0417 9.44165 17.35 9.74998 17.35 10.125C17.35 10.5 17.0417 10.8083 16.6667 10.8083Z" fill="#22234A"/>
<path d="M16.6667 5.55832H9.10838C8.73338 5.55832 8.42505 5.24998 8.42505 4.87498C8.42505 4.49998 8.73338 4.19165 9.10838 4.19165H16.6667C17.0417 4.19165 17.35 4.49998 17.35 4.87498C17.35 5.24998 17.0417 5.55832 16.6667 5.55832Z" fill="#22234A"/>
<path d="M4.09169 6.69168C3.90836 6.69168 3.73336 6.61668 3.60836 6.49168L2.85002 5.73335C2.58336 5.46668 2.58336 5.03335 2.85002 4.76668C3.11669 4.50002 3.55002 4.50002 3.81669 4.76668L4.09169 5.04168L5.87502 3.25835C6.14169 2.99168 6.57502 2.99168 6.84169 3.25835C7.10836 3.52502 7.10836 3.95835 6.84169 4.22502L4.57502 6.49168C4.44169 6.61668 4.27502 6.69168 4.09169 6.69168Z" fill="#22234A"/>
<path d="M4.09169 11.9417C3.91669 11.9417 3.74169 11.875 3.60836 11.7417L2.85002 10.9834C2.58336 10.7167 2.58336 10.2834 2.85002 10.0167C3.11669 9.75002 3.55002 9.75002 3.81669 10.0167L4.09169 10.2917L5.87502 8.50835C6.14169 8.24168 6.57502 8.24168 6.84169 8.50835C7.10836 8.77502 7.10836 9.20835 6.84169 9.47502L4.57502 11.7417C4.44169 11.875 4.26669 11.9417 4.09169 11.9417Z" fill="#22234A"/>
<path d="M4.09169 16.9417C3.91669 16.9417 3.74169 16.875 3.60836 16.7417L2.85002 15.9834C2.58336 15.7167 2.58336 15.2834 2.85002 15.0167C3.11669 14.75 3.55002 14.75 3.81669 15.0167L4.09169 15.2917L5.87502 13.5083C6.14169 13.2417 6.57502 13.2417 6.84169 13.5083C7.10836 13.775 7.10836 14.2084 6.84169 14.475L4.57502 16.7417C4.44169 16.875 4.26669 16.9417 4.09169 16.9417Z" fill="#22234A"/>
</svg>
