<svg width="16" height="16" viewBox="0 0 16 16" fill="none" xmlns="http://www.w3.org/2000/svg">
<path d="M8.00004 15.1666C4.04671 15.1666 0.833374 11.9533 0.833374 7.99992C0.833374 4.04659 4.04671 0.833252 8.00004 0.833252C11.9534 0.833252 15.1667 4.04659 15.1667 7.99992C15.1667 11.9533 11.9534 15.1666 8.00004 15.1666ZM8.00004 1.83325C4.60004 1.83325 1.83337 4.59992 1.83337 7.99992C1.83337 11.3999 4.60004 14.1666 8.00004 14.1666C11.4 14.1666 14.1667 11.3999 14.1667 7.99992C14.1667 4.59992 11.4 1.83325 8.00004 1.83325Z" fill="#727E94"/>
<path d="M7.05334 10.3867C6.92 10.3867 6.79334 10.3334 6.7 10.2401L4.81333 8.3534C4.62 8.16007 4.62 7.84007 4.81333 7.64673C5.00667 7.4534 5.32667 7.4534 5.52 7.64673L7.05334 9.18007L10.48 5.7534C10.6733 5.56007 10.9933 5.56007 11.1867 5.7534C11.38 5.94673 11.38 6.26673 11.1867 6.46006L7.40667 10.2401C7.31334 10.3334 7.18667 10.3867 7.05334 10.3867Z" fill="#727E94"/>
</svg>
