<svg width="20" height="20" viewBox="0 0 20 20" fill="none" xmlns="http://www.w3.org/2000/svg">
<path d="M17.5 5.60833C17.4833 5.60833 17.4583 5.60833 17.4333 5.60833C13.025 5.16667 8.62499 5 4.26666 5.44167L2.56666 5.60833C2.21666 5.64167 1.90832 5.39167 1.87499 5.04167C1.84166 4.69167 2.09166 4.39167 2.43332 4.35833L4.13332 4.19167C8.56666 3.74167 13.0583 3.91667 17.5583 4.35833C17.9 4.39167 18.15 4.7 18.1167 5.04167C18.0917 5.36667 17.8167 5.60833 17.5 5.60833Z" fill="#FC5371"/>
<path d="M7.08332 4.76669C7.04999 4.76669 7.01665 4.76669 6.97499 4.75835C6.64165 4.70002 6.40832 4.37502 6.46665 4.04169L6.64999 2.95002C6.78332 2.15002 6.96665 1.04169 8.90832 1.04169H11.0917C13.0417 1.04169 13.225 2.19169 13.35 2.95835L13.5333 4.04169C13.5917 4.38335 13.3583 4.70835 13.025 4.75835C12.6833 4.81669 12.3583 4.58335 12.3083 4.25002L12.125 3.16669C12.0083 2.44169 11.9833 2.30002 11.1 2.30002H8.91665C8.03332 2.30002 8.01665 2.41669 7.89165 3.15835L7.69999 4.24169C7.64999 4.55002 7.38332 4.76669 7.08332 4.76669Z" fill="#FC5371"/>
<path d="M12.675 18.9583H7.325C4.41666 18.9583 4.3 17.35 4.20833 16.05L3.66666 7.65833C3.64166 7.31667 3.90833 7.01667 4.25 6.99167C4.6 6.975 4.89166 7.23334 4.91666 7.575L5.45833 15.9667C5.55 17.2333 5.58333 17.7083 7.325 17.7083H12.675C14.425 17.7083 14.4583 17.2333 14.5417 15.9667L15.0833 7.575C15.1083 7.23334 15.4083 6.975 15.75 6.99167C16.0917 7.01667 16.3583 7.30833 16.3333 7.65833L15.7917 16.05C15.7 17.35 15.5833 18.9583 12.675 18.9583Z" fill="#FC5371"/>
<path d="M11.3833 14.375H8.60834C8.26667 14.375 7.98334 14.0917 7.98334 13.75C7.98334 13.4083 8.26667 13.125 8.60834 13.125H11.3833C11.725 13.125 12.0083 13.4083 12.0083 13.75C12.0083 14.0917 11.725 14.375 11.3833 14.375Z" fill="#FC5371"/>
<path d="M12.0834 11.0417H7.91669C7.57502 11.0417 7.29169 10.7584 7.29169 10.4167C7.29169 10.075 7.57502 9.79169 7.91669 9.79169H12.0834C12.425 9.79169 12.7084 10.075 12.7084 10.4167C12.7084 10.7584 12.425 11.0417 12.0834 11.0417Z" fill="#FC5371"/>
</svg>
