<svg width="20" height="20" viewBox="0 0 20 20" fill="none" xmlns="http://www.w3.org/2000/svg">
<path d="M16.2581 4.87508L11.3081 2.01675C10.4998 1.55008 9.49977 1.55008 8.68311 2.01675L3.74144 4.87508C2.93311 5.34175 2.43311 6.20842 2.43311 7.15008V12.8501C2.43311 13.7834 2.93311 14.6501 3.74144 15.1251L8.69144 17.9834C9.49977 18.4501 10.4998 18.4501 11.3164 17.9834L16.2664 15.1251C17.0748 14.6584 17.5748 13.7917 17.5748 12.8501V7.15008C17.5664 6.20842 17.0664 5.35008 16.2581 4.87508ZM9.99977 6.11675C11.0748 6.11675 11.9414 6.98342 11.9414 8.05841C11.9414 9.13342 11.0748 10.0001 9.99977 10.0001C8.92477 10.0001 8.05811 9.13342 8.05811 8.05841C8.05811 6.99175 8.92477 6.11675 9.99977 6.11675ZM12.2331 13.8834H7.76644C7.09144 13.8834 6.69977 13.1334 7.07477 12.5751C7.64144 11.7334 8.74144 11.1667 9.99977 11.1667C11.2581 11.1667 12.3581 11.7334 12.9248 12.5751C13.2998 13.1251 12.8998 13.8834 12.2331 13.8834Z" fill="#22234A"/>
</svg>
