<svg width="20" height="20" viewBox="0 0 20 20" fill="none" xmlns="http://www.w3.org/2000/svg">
<g clip-path="url(#clip0_1173_3731)">
<path d="M9.98469 0.208496C8.03532 0.208496 6.16719 0.783184 4.57407 1.84318L4.7125 1.40912C4.83782 1.01225 4.61969 0.588496 4.22344 0.462246C3.82844 0.336309 3.40344 0.555371 3.27688 0.951309L2.35157 3.85225C2.275 4.09443 2.32407 4.35818 2.48469 4.55537C2.62782 4.73287 2.84344 4.83412 3.06907 4.83412C3.09469 4.83412 3.12 4.83287 3.145 4.83068L6.17469 4.52381C6.58875 4.48193 6.89063 4.11287 6.84844 3.69818C6.80657 3.28412 6.44625 2.98912 6.02282 3.02475L5.42313 3.08537C6.7675 2.19631 8.34219 1.71475 9.98438 1.71475C14.5528 1.71475 18.2697 5.43162 18.2697 9.99943C18.2697 14.5682 14.5528 18.2847 9.98438 18.2847C9.56813 18.2847 9.23125 18.6216 9.23125 19.0379C9.23125 19.4544 9.56813 19.7913 9.98438 19.7913C15.3834 19.7913 19.7763 15.3988 19.7763 9.99943C19.7766 4.601 15.3838 0.208496 9.98469 0.208496Z" fill="#22234A"/>
<path d="M7.05576 17.7521C6.64264 17.5962 6.23732 17.4034 5.85076 17.1812C5.49045 16.9724 5.02889 17.0977 4.82264 17.458C4.61451 17.8184 4.73857 18.279 5.0992 18.4862C5.55451 18.749 6.0342 18.9762 6.52326 19.1618C6.61045 19.1949 6.70045 19.2102 6.78951 19.2102C7.09326 19.2102 7.38045 19.0249 7.49451 18.7234C7.64139 18.334 7.44482 17.8993 7.05576 17.7521Z" fill="#22234A"/>
<path d="M2.98885 14.4392C2.76635 14.0873 2.30135 13.9836 1.94885 14.2067C1.59791 14.4295 1.49385 14.8954 1.71666 15.2467C1.99541 15.6857 2.31447 16.1086 2.66478 16.5032C2.81385 16.6711 3.02072 16.7564 3.22791 16.7564C3.40603 16.7564 3.58478 16.6936 3.72791 16.5664C4.03947 16.2895 4.06728 15.8136 3.79135 15.5026C3.49447 15.1676 3.22447 14.8104 2.98885 14.4392Z" fill="#22234A"/>
<path d="M1.9427 11.9975C1.83582 11.5681 1.76301 11.1263 1.7277 10.6834C1.69395 10.2694 1.3277 9.96376 0.915821 9.99345C0.501759 10.0272 0.192696 10.3906 0.225821 10.8053C0.268321 11.3281 0.353946 11.8522 0.480196 12.3609C0.565509 12.7034 0.873009 12.9322 1.21082 12.9322C1.27082 12.9322 1.33207 12.925 1.39301 12.9103C1.79676 12.8097 2.0427 12.4016 1.9427 11.9975Z" fill="#22234A"/>
<path d="M1.02372 8.58678C1.08403 8.60147 1.14372 8.60834 1.2031 8.60834C1.54216 8.60834 1.8506 8.37771 1.93435 8.03365C2.03935 7.60303 2.17997 7.1774 2.35341 6.76771C2.51528 6.38459 2.33685 5.94271 1.95341 5.78053C1.57028 5.61865 1.12841 5.79803 0.966534 6.18053C0.762159 6.66459 0.595284 7.16771 0.470909 7.67615C0.372159 8.0799 0.619971 8.48834 1.02372 8.58678Z" fill="#22234A"/>
<path d="M7.925 7.37501C7.925 6.23069 8.85569 5.3 10 5.3C11.1441 5.3 12.0747 6.23039 12.075 7.37445C12.0703 8.49719 11.1951 9.40315 10.0796 9.44502H10.0796H10.0795H10.0795H10.0795H10.0795H10.0795H10.0795H10.0794H10.0794H10.0794H10.0794H10.0794H10.0794H10.0794H10.0793H10.0793H10.0793H10.0793H10.0793H10.0793H10.0793H10.0792H10.0792H10.0792H10.0792H10.0792H10.0792H10.0791H10.0791H10.0791H10.0791H10.0791H10.0791H10.0791H10.079H10.079H10.079H10.079H10.079H10.079H10.0789H10.0789H10.0789H10.0789H10.0789H10.0789H10.0788H10.0788H10.0788H10.0788H10.0788H10.0788H10.0788H10.0787H10.0787H10.0787H10.0787H10.0787H10.0787H10.0786H10.0786H10.0786H10.0786H10.0786H10.0786H10.0785H10.0785H10.0785H10.0785H10.0785H10.0785H10.0784H10.0784H10.0784H10.0784H10.0784H10.0784H10.0783H10.0783H10.0783H10.0783H10.0783H10.0782H10.0782H10.0782H10.0782H10.0782H10.0782H10.0781H10.0781H10.0781H10.0781H10.0781H10.0781H10.078H10.078H10.078H10.078H10.078H10.0779H10.0779H10.0779H10.0779H10.0779H10.0778H10.0778H10.0778H10.0778H10.0778H10.0778H10.0777H10.0777H10.0777H10.0777H10.0777H10.0776H10.0776H10.0776H10.0776H10.0776H10.0775H10.0775H10.0775H10.0775H10.0775H10.0774H10.0774H10.0774H10.0774H10.0774H10.0773H10.0773H10.0773H10.0773H10.0773H10.0772H10.0772H10.0772H10.0772H10.0772H10.0771H10.0771H10.0771H10.0771H10.077H10.077H10.077H10.077H10.077H10.0769H10.0769H10.0769H10.0769H10.0769H10.0768H10.0768H10.0768H10.0768H10.0767H10.0767H10.0767H10.0767H10.0766H10.0766H10.0766H10.0766H10.0766H10.0765H10.0765H10.0765H10.0765H10.0764H10.0764H10.0764H10.0764H10.0763H10.0763H10.0763H10.0763H10.0762H10.0762H10.0762H10.0762H10.0761H10.0761H10.0761H10.0761H10.076H10.076H10.076H10.076H10.0759H10.0759H10.0759H10.0759H10.0758H10.0758H10.0758H10.0758H10.0757H10.0757H10.0757H10.0757H10.0756H10.0756H10.0756H10.0755H10.0755H10.0755H10.0755H10.0754H10.0754H10.0754H10.0754H10.0753H10.0753H10.0753H10.0752H10.0752H10.0752H10.0752H10.0751H10.0751H10.0751H10.075H10.075H10.075H10.0749H10.0748H10.0748H10.0747H10.0747H10.0746H10.0745H10.0745H10.0744H10.0744H10.0743H10.0743H10.0742H10.0741H10.0741H10.074H10.074H10.0739H10.0739H10.0738H10.0737H10.0737H10.0736H10.0736H10.0735H10.0735H10.0734H10.0734H10.0733H10.0732H10.0732H10.0731H10.0731H10.073H10.073H10.0729H10.0729H10.0728H10.0728H10.0727H10.0726H10.0726H10.0725H10.0725H10.0724H10.0724H10.0723H10.0723H10.0722H10.0722H10.0721H10.0721H10.072H10.0719H10.0719H10.0718H10.0718H10.0717H10.0717H10.0716H10.0716H10.0715H10.0715H10.0714H10.0714H10.0713H10.0713H10.0712H10.0712H10.0711H10.0711H10.071H10.071H10.0709H10.0709H10.0708H10.0708H10.0707H10.0707H10.0706H10.0705H10.0705H10.0704H10.0704H10.0703H10.0703H10.0702H10.0702H10.0701H10.0701H10.07H10.07H10.0699H10.0699H10.0698H10.0698H10.0697H10.0697C10.0225 9.43981 9.97422 9.44043 9.93004 9.44441C8.78951 9.39497 7.925 8.48964 7.925 7.37501Z" fill="#22234A" stroke="#22234A" stroke-width="0.600003"/>
<path d="M7.62722 14.0459L7.6264 14.0453C7.05702 13.6658 6.77998 13.18 6.77998 12.69C6.77998 12.1997 7.05724 11.7091 7.63121 11.3247C8.27465 10.899 9.13358 10.6774 10.0062 10.6774C10.8793 10.6774 11.7355 10.8992 12.3736 11.3246C12.9408 11.7027 13.2156 12.1883 13.22 12.6812C13.2196 13.176 12.9422 13.6616 12.3726 14.046C11.7321 14.476 10.8737 14.7 10 14.7C9.12622 14.7 8.26775 14.476 7.62722 14.0459Z" fill="#22234A" stroke="#22234A" stroke-width="0.600003"/>
</g>
<defs>
<clipPath id="clip0_1173_3731">
<rect width="20" height="20" fill="white"/>
</clipPath>
</defs>
</svg>
