<svg width="16" height="16" viewBox="0 0 16 16" fill="none" xmlns="http://www.w3.org/2000/svg">
<path d="M8.00002 8.00004C6.16821 8.00004 4.67545 6.51265 4.66673 4.68284C4.67546 6.51161 6.16926 8.00004 8.00002 8.00004ZM8.00002 8.00004C9.83721 8.00004 11.3334 6.5039 11.3334 4.66671M8.00002 8.00004C9.83616 8.00004 11.3334 6.50285 11.3334 4.66671M11.3334 4.66671C11.3334 2.8349 9.84596 1.34214 8.01615 1.33341C9.84492 1.34215 11.3334 2.83595 11.3334 4.66671ZM4.66673 4.65057C4.67543 2.82614 6.15945 1.34211 7.98389 1.33341C6.16049 1.34213 4.67544 2.82718 4.66673 4.65057Z" fill="#727E94" stroke="#727E94"/>
<path d="M8.0001 10C9.16778 10 10.2359 10.2816 11.1253 10.7579C10.2129 10.2749 9.13149 10 8.0001 10ZM8.0001 10C6.83243 10 5.76427 10.2816 4.87496 10.7579C5.7873 10.2749 6.86872 10 8.0001 10Z" fill="#727E94" stroke="#727E94"/>
</svg>
