<svg width="20" height="20" viewBox="0 0 20 20" fill="none" xmlns="http://www.w3.org/2000/svg">
<g clip-path="url(#clip0_59_1046)">
<path d="M9.98469 0.208435C8.03532 0.208435 6.16719 0.783123 4.57407 1.84312L4.7125 1.40906C4.83782 1.01218 4.61969 0.588435 4.22344 0.462185C3.82844 0.336248 3.40344 0.55531 3.27688 0.951248L2.35157 3.85219C2.275 4.09437 2.32407 4.35812 2.48469 4.55531C2.62782 4.73281 2.84344 4.83406 3.06907 4.83406C3.09469 4.83406 3.12 4.83281 3.145 4.83062L6.17469 4.52375C6.58875 4.48187 6.89063 4.11281 6.84844 3.69812C6.80657 3.28406 6.44625 2.98906 6.02282 3.02469L5.42313 3.08531C6.7675 2.19625 8.34219 1.71469 9.98438 1.71469C14.5528 1.71469 18.2697 5.43156 18.2697 9.99937C18.2697 14.5681 14.5528 18.2847 9.98438 18.2847C9.56813 18.2847 9.23125 18.6216 9.23125 19.0378C9.23125 19.4544 9.56813 19.7912 9.98438 19.7912C15.3834 19.7912 19.7763 15.3987 19.7763 9.99937C19.7766 4.60093 15.3838 0.208435 9.98469 0.208435Z" fill="#727E94"/>
<path d="M7.05576 17.7522C6.64264 17.5962 6.23732 17.4034 5.85076 17.1812C5.49045 16.9725 5.02889 17.0978 4.82264 17.4581C4.61451 17.8184 4.73857 18.279 5.0992 18.4862C5.55451 18.749 6.0342 18.9762 6.52326 19.1618C6.61045 19.195 6.70045 19.2103 6.78951 19.2103C7.09326 19.2103 7.38045 19.025 7.49451 18.7234C7.64139 18.334 7.44482 17.8993 7.05576 17.7522Z" fill="#727E94"/>
<path d="M2.98885 14.4391C2.76635 14.0872 2.30135 13.9835 1.94885 14.2066C1.59791 14.4294 1.49385 14.8954 1.71666 15.2466C1.99541 15.6857 2.31447 16.1085 2.66478 16.5032C2.81385 16.671 3.02072 16.7563 3.22791 16.7563C3.40603 16.7563 3.58478 16.6935 3.72791 16.5663C4.03947 16.2894 4.06728 15.8135 3.79135 15.5026C3.49447 15.1676 3.22447 14.8104 2.98885 14.4391Z" fill="#727E94"/>
<path d="M1.9427 11.9974C1.83582 11.5681 1.76301 11.1262 1.7277 10.6834C1.69395 10.2693 1.3277 9.9637 0.915821 9.99339C0.501759 10.0271 0.192696 10.3906 0.225821 10.8053C0.268321 11.3281 0.353946 11.8521 0.480196 12.3609C0.565509 12.7034 0.873009 12.9321 1.21082 12.9321C1.27082 12.9321 1.33207 12.9249 1.39301 12.9103C1.79676 12.8096 2.0427 12.4015 1.9427 11.9974Z" fill="#727E94"/>
<path d="M1.02372 8.58684C1.08403 8.60153 1.14372 8.6084 1.2031 8.6084C1.54216 8.6084 1.8506 8.37778 1.93435 8.03371C2.03935 7.60309 2.17997 7.17746 2.35341 6.76778C2.51528 6.38465 2.33685 5.94278 1.95341 5.78059C1.57028 5.61871 1.12841 5.79809 0.966534 6.18059C0.762159 6.66465 0.595284 7.16778 0.470909 7.67621C0.372159 8.07996 0.619971 8.4884 1.02372 8.58684Z" fill="#727E94"/>
<path d="M10.08 9.43508C10.03 9.43008 9.97004 9.43008 9.91504 9.43508C8.72503 9.39508 7.78003 8.42008 7.78003 7.22007C7.78003 5.99507 8.77003 5.00006 10 5.00006C11.225 5.00006 12.22 5.99507 12.22 7.22007C12.215 8.42008 11.27 9.39508 10.08 9.43508Z" stroke="#727E94" stroke-width="0.833337" stroke-linecap="round" stroke-linejoin="round"/>
<path d="M7.58011 11.2801C6.37011 12.0901 6.37011 13.4101 7.58011 14.2151C8.95512 15.1351 11.2101 15.1351 12.5851 14.2151C13.7951 13.4051 13.7951 12.0851 12.5851 11.2801C11.2151 10.3651 8.96012 10.3651 7.58011 11.2801Z" stroke="#727E94" stroke-width="0.833337" stroke-linecap="round" stroke-linejoin="round"/>
</g>
<defs>
<clipPath id="clip0_59_1046">
<rect width="20" height="20" fill="white"/>
</clipPath>
</defs>
</svg>
