<svg width="20" height="20" viewBox="0 0 20 20" fill="none" xmlns="http://www.w3.org/2000/svg">
<path d="M10 18.9583C9.44172 18.9583 8.87505 18.8166 8.37505 18.5249L3.42505 15.6666C2.42505 15.0833 1.80005 14.0083 1.80005 12.8499V7.14997C1.80005 5.99164 2.42505 4.91664 3.42505 4.3333L8.37505 1.47498C9.37505 0.891642 10.6167 0.891642 11.625 1.47498L16.575 4.3333C17.575 4.91664 18.2 5.99164 18.2 7.14997V12.8499C18.2 14.0083 17.575 15.0833 16.575 15.6666L11.625 18.5249C11.125 18.8166 10.5584 18.9583 10 18.9583ZM10 2.29163C9.65838 2.29163 9.30838 2.3833 9.00005 2.5583L4.05005 5.41663C3.43338 5.77496 3.05005 6.43331 3.05005 7.14997V12.8499C3.05005 13.5583 3.43338 14.225 4.05005 14.5833L9.00005 17.4416C9.61672 17.8 10.3834 17.8 11 17.4416L15.95 14.5833C16.5667 14.225 16.95 13.5666 16.95 12.8499V7.14997C16.95 6.44164 16.5667 5.77496 15.95 5.41663L11 2.5583C10.6917 2.3833 10.3417 2.29163 10 2.29163Z" fill="#727E94"/>
<path d="M10 9.7917C8.58335 9.7917 7.43335 8.64168 7.43335 7.22502C7.43335 5.80835 8.58335 4.65839 10 4.65839C11.4167 4.65839 12.5667 5.80835 12.5667 7.22502C12.5667 8.64168 11.4167 9.7917 10 9.7917ZM10 5.90839C9.27502 5.90839 8.68335 6.50002 8.68335 7.22502C8.68335 7.95002 9.27502 8.5417 10 8.5417C10.725 8.5417 11.3167 7.95002 11.3167 7.22502C11.3167 6.50002 10.725 5.90839 10 5.90839Z" fill="#727E94"/>
<path d="M13.3334 14.5084C12.9917 14.5084 12.7084 14.2251 12.7084 13.8834C12.7084 12.7334 11.4917 11.7918 10.0001 11.7918C8.50841 11.7918 7.29175 12.7334 7.29175 13.8834C7.29175 14.2251 7.00841 14.5084 6.66675 14.5084C6.32508 14.5084 6.04175 14.2251 6.04175 13.8834C6.04175 12.0418 7.81675 10.5418 10.0001 10.5418C12.1834 10.5418 13.9584 12.0418 13.9584 13.8834C13.9584 14.2251 13.6751 14.5084 13.3334 14.5084Z" fill="#727E94"/>
</svg>
